<svg width="188" height="60" viewBox="0 0 188 60" fill="none" xmlns="http://www.w3.org/2000/svg">
<g clip-path="url(#clip0_36_2758)">
<path d="M20.8858 7.8639L8.32527 20.9575V34.2409L0 42.9148V21.5147L20.8858 0V7.8639Z" fill="url(#paint0_linear_36_2758)"/>
<path d="M31.3305 7.80325L18.7699 20.9005V34.2409L10.4447 42.9148V21.5147L31.3305 0V7.80325Z" fill="url(#paint1_linear_36_2758)"/>
<path d="M41.7711 21.5147L20.8858 42.9148V21.5183L41.7711 0V21.5147Z" fill="url(#paint2_linear_36_2758)"/>
<path d="M56.0257 10.9229V20.3163C56.0257 23.6961 55.795 26.1103 55.3269 27.5656C54.9446 28.771 54.3975 29.3686 53.6856 29.3686H52.219V32.2319H55.4917C56.5497 32.2319 57.3704 31.4114 57.9636 29.7704C58.4316 28.5008 58.7546 26.7147 58.9392 24.4119C59.0611 22.9364 59.1204 21.211 59.1204 19.2392V13.7862H74.1197V32.2319H77.2178V10.9229H56.0224H56.0257Z" fill="white"/>
<path d="M82.1846 10.9229V32.2319H85.2826V10.9229H82.1846Z" fill="white"/>
<path d="M101.785 10.9229V32.2319H104.883V10.9229H101.785Z" fill="white"/>
<path d="M101.785 10.9263L89.1024 32.2319H85.2826L97.9649 10.9263H101.785Z" fill="white"/>
<path d="M133.774 29.3686V10.9837H112.852V18.0777C112.852 19.4451 112.7 21.3292 112.397 23.7231C112.094 26.1171 111.748 28.0011 111.366 29.3686H109.846V37.3641H112.7V32.2319H132.406V37.3641H135.26V29.3686H133.774ZM130.679 29.3686H114.648C115.031 27.8965 115.347 26.0495 115.591 23.8312C115.835 21.6128 115.957 19.695 115.957 18.0777V13.8469H130.682V29.3686H130.679Z" fill="white"/>
<path d="M146.143 20.0056L143.325 22.8689H159.541V20.0056H146.143ZM143.325 29.3686V10.9229H140.227V32.2319H160.114V29.3686H143.322H143.325ZM146.123 10.9229L143.329 13.7862H160.117V10.9229H146.123Z" fill="white"/>
<path d="M165.084 32.242V10.8587H182.087C183.936 10.8587 185.383 11.4226 186.428 12.5537C187.473 13.6815 187.997 15.3967 187.997 17.6961C187.997 19.9955 187.463 21.704 186.398 22.825C185.33 23.9426 183.854 24.5031 181.965 24.5031H168.192V32.2454H165.084V32.242ZM168.192 21.6297H181.965C182.859 21.6297 183.57 21.3157 184.098 20.6843C184.625 20.0563 184.889 19.0602 184.889 17.6961C184.889 16.332 184.628 15.3326 184.111 14.6911C183.594 14.0529 182.865 13.7321 181.932 13.7321H168.189V21.6297H168.192Z" fill="white"/>
<path d="M52.5717 49.1953V44.4885H56.4442V49.1953H55.5544V45.3495H53.4582V49.1953H52.5684H52.5717Z" fill="white"/>
<path d="M57.8878 51.2853V44.4885H58.6788V47.8751H58.781V51.2853H57.8878ZM60.0466 49.327C59.6082 49.327 59.2391 49.2189 58.9392 48.9994C58.6426 48.78 58.4151 48.4828 58.2635 48.108C58.1119 47.7333 58.0328 47.3112 58.0328 46.8385C58.0328 46.3658 58.1086 45.9437 58.2602 45.5689C58.4119 45.1942 58.636 44.9004 58.9326 44.6809C59.2292 44.4648 59.5951 44.3568 60.0268 44.3568C60.4586 44.3568 60.831 44.4648 61.1441 44.6809C61.4572 44.897 61.6978 45.1908 61.8692 45.5656C62.0405 45.9403 62.1229 46.3624 62.1229 46.8351C62.1229 47.3078 62.0373 47.7299 61.8692 48.1047C61.7011 48.4795 61.4605 48.7766 61.1507 48.9961C60.8409 49.2155 60.4717 49.3236 60.0433 49.3236L60.0466 49.327ZM59.9246 48.5031C60.2081 48.5031 60.4421 48.4288 60.6299 48.2803C60.8145 48.1317 60.9529 47.9325 61.0452 47.6826C61.1375 47.4328 61.1836 47.1491 61.1836 46.8385C61.1836 46.5279 61.1375 46.251 61.0452 46.0011C60.9529 45.7513 60.8112 45.5521 60.6233 45.4035C60.4322 45.2549 60.1916 45.1806 59.895 45.1806C59.6181 45.1806 59.3874 45.2515 59.2094 45.39C59.0282 45.5284 58.8963 45.7243 58.8106 45.9741C58.725 46.224 58.6821 46.511 58.6821 46.8351C58.6821 47.1593 58.725 47.4496 58.8106 47.6995C58.8963 47.9494 59.0315 48.1452 59.216 48.287C59.4006 48.4288 59.6379 48.4997 59.9312 48.4997L59.9246 48.5031Z" fill="white"/>
<path d="M65.3133 49.327C64.8552 49.327 64.4564 49.2223 64.1169 49.0096C63.7807 48.7968 63.5204 48.5031 63.3358 48.1317C63.1512 47.7603 63.0623 47.3281 63.0623 46.8385C63.0623 46.3489 63.1545 45.9167 63.3424 45.5419C63.5303 45.1671 63.7906 44.8768 64.1301 44.6708C64.4663 44.4648 64.8618 44.3602 65.3133 44.3602C65.7648 44.3602 66.1702 44.4648 66.5097 44.6776C66.8459 44.8903 67.1062 45.1806 67.2908 45.5521C67.4754 45.9235 67.5676 46.3523 67.5676 46.8385C67.5676 47.3247 67.4754 47.7603 67.2875 48.1351C67.1029 48.5098 66.8393 48.8002 66.5031 49.0096C66.1669 49.2189 65.7681 49.327 65.3133 49.327ZM65.3133 48.466C65.7516 48.466 66.0812 48.314 66.2988 48.0101C66.5163 47.7062 66.625 47.3146 66.625 46.8351C66.625 46.3557 66.5163 45.9505 66.2955 45.6567C66.0746 45.363 65.7483 45.2144 65.3166 45.2144C65.02 45.2144 64.7728 45.2819 64.5816 45.4204C64.3872 45.5588 64.2455 45.7479 64.1532 45.991C64.0609 46.2341 64.0115 46.5144 64.0115 46.8351C64.0115 47.3281 64.1235 47.7231 64.3443 48.0203C64.5651 48.3174 64.8914 48.466 65.3166 48.466H65.3133Z" fill="white"/>
<path d="M70.9162 51.1536V49.2763C70.468 49.3506 70.0626 49.2999 69.6967 49.1277C69.3309 48.9555 69.0409 48.6787 68.8234 48.2904C68.6091 47.9055 68.5004 47.4226 68.5004 46.8452C68.5004 46.2679 68.6091 45.785 68.8234 45.3934C69.0376 45.0051 69.3309 44.7248 69.6967 44.5526C70.0626 44.3804 70.468 44.3331 70.9162 44.4041V42.9792H71.7171V44.4041C72.1653 44.3298 72.5707 44.3804 72.9365 44.5526C73.3024 44.7248 73.5924 45.0051 73.8099 45.3934C74.0242 45.7817 74.1329 46.2679 74.1329 46.8452C74.1329 47.4226 74.0242 47.9055 73.8099 48.2904C73.5957 48.6753 73.3024 48.9555 72.9365 49.1277C72.5707 49.2999 72.1653 49.3472 71.7171 49.2763V51.1536H70.9162ZM70.9162 48.4524V45.2313C70.6855 45.1908 70.4779 45.1975 70.2933 45.2515C70.1087 45.3056 69.9505 45.4035 69.8187 45.5419C69.6869 45.6804 69.588 45.8593 69.5155 46.0788C69.443 46.2983 69.41 46.5515 69.41 46.8419C69.41 47.1322 69.4463 47.3855 69.5188 47.605C69.5913 47.821 69.6935 48 69.8286 48.1384C69.9637 48.2769 70.1219 48.3714 70.3065 48.4254C70.491 48.4795 70.6921 48.4862 70.9162 48.4491V48.4524ZM71.7171 48.4524C71.9379 48.4896 72.1422 48.4828 72.3268 48.4322C72.5114 48.3815 72.6696 48.287 72.8047 48.1486C72.9398 48.0135 73.042 47.8346 73.1145 47.6151C73.187 47.3956 73.2233 47.139 73.2233 46.8452C73.2233 46.5515 73.187 46.2915 73.1178 46.072C73.0453 45.8526 72.9464 45.6736 72.8146 45.5352C72.6828 45.3967 72.5246 45.3022 72.34 45.2482C72.1554 45.1941 71.9478 45.1908 71.7171 45.2313V48.4524Z" fill="white"/>
<path d="M77.3594 49.327C76.9013 49.327 76.5025 49.2257 76.1565 49.0197C75.8104 48.8137 75.5434 48.5301 75.3523 48.1621C75.1611 47.794 75.0656 47.3686 75.0656 46.8824C75.0656 46.3692 75.1611 45.9235 75.349 45.5453C75.5369 45.1671 75.8005 44.8768 76.1367 44.6708C76.4729 44.4648 76.8684 44.3602 77.3133 44.3602C77.7582 44.3602 78.1801 44.4716 78.5097 44.6944C78.8393 44.9173 79.0832 45.2313 79.2479 45.6432C79.4094 46.0518 79.4754 46.538 79.4424 47.1019H78.5525V46.771C78.5459 46.224 78.4471 45.8222 78.2493 45.5588C78.0516 45.2988 77.7516 45.1671 77.3496 45.1671C76.9046 45.1671 76.5684 45.3123 76.3443 45.5993C76.1202 45.8863 76.0082 46.3016 76.0082 46.8452C76.0082 47.3889 76.1202 47.7636 76.3443 48.0439C76.5684 48.3241 76.8914 48.4693 77.3133 48.4693C77.5902 48.4693 77.8307 48.4052 78.0351 48.2769C78.2394 48.1486 78.3943 47.9629 78.5097 47.7198L79.3831 48.0034C79.2051 48.4254 78.9348 48.7496 78.5723 48.9826C78.2098 49.2122 77.8044 49.3303 77.3594 49.3303V49.327ZM75.7214 47.0985V46.3894H79.0008V47.0985H75.7214Z" fill="white"/>
<path d="M82.6163 49.327C82.145 49.327 81.7462 49.2189 81.4166 49.0062C81.087 48.7901 80.8365 48.4963 80.6619 48.1216C80.4872 47.7468 80.3982 47.3213 80.3949 46.8452C80.3949 46.359 80.4872 45.9302 80.6685 45.5588C80.8464 45.184 81.1035 44.8936 81.4331 44.6809C81.766 44.4682 82.1648 44.3635 82.6295 44.3635C83.1304 44.3635 83.5589 44.4918 83.9148 44.7485C84.2708 45.0051 84.5048 45.3528 84.6201 45.7985L83.7369 46.0585C83.6479 45.7952 83.5061 45.5892 83.3051 45.4406C83.1041 45.2954 82.8766 45.2212 82.6196 45.2212C82.3262 45.2212 82.0889 45.2921 81.9011 45.4339C81.7132 45.5757 81.5748 45.7681 81.4858 46.0113C81.3935 46.2544 81.3474 46.5346 81.3441 46.8486C81.3441 47.3348 81.4562 47.7265 81.6704 48.0236C81.8846 48.3241 82.201 48.4727 82.6196 48.4727C82.9063 48.4727 83.137 48.4052 83.315 48.2701C83.493 48.1351 83.6281 47.9426 83.7204 47.6894L84.6234 47.9088C84.4718 48.368 84.2246 48.7192 83.8786 48.9657C83.5325 49.2122 83.1139 49.3337 82.6196 49.3337L82.6163 49.327Z" fill="white"/>
<path d="M87.5798 49.327C87.1085 49.327 86.7097 49.2189 86.3801 49.0062C86.0505 48.7901 85.8 48.4963 85.6254 48.1216C85.4507 47.7468 85.3617 47.3213 85.3584 46.8452C85.3584 46.359 85.4507 45.9302 85.632 45.5588C85.8099 45.184 86.067 44.8936 86.3966 44.6809C86.7295 44.4682 87.1283 44.3635 87.593 44.3635C88.0939 44.3635 88.5224 44.4918 88.8783 44.7485C89.2343 45.0051 89.4683 45.3528 89.5836 45.7985L88.7004 46.0585C88.6114 45.7952 88.4697 45.5892 88.2686 45.4406C88.0676 45.2954 87.8401 45.2212 87.5831 45.2212C87.2897 45.2212 87.0525 45.2921 86.8646 45.4339C86.6767 45.5757 86.5383 45.7681 86.4493 46.0113C86.357 46.2544 86.3109 46.5346 86.3076 46.8486C86.3076 47.3348 86.4196 47.7265 86.6339 48.0236C86.8481 48.3241 87.1645 48.4727 87.5831 48.4727C87.8698 48.4727 88.1005 48.4052 88.2785 48.2701C88.4565 48.1351 88.5916 47.9426 88.6839 47.6894L89.5869 47.9088C89.4353 48.368 89.1881 48.7192 88.8421 48.9657C88.496 49.2122 88.0774 49.3337 87.5831 49.3337L87.5798 49.327Z" fill="white"/>
<path d="M94.5768 44.4885V49.1953H93.7232V45.9235L91.426 49.1953H90.7042V44.4885H91.5578V47.6961L93.8583 44.4885H94.5768Z" fill="white"/>
<path d="M98.0144 49.327C97.5562 49.327 97.1574 49.2223 96.818 49.0096C96.4818 48.7968 96.2214 48.5031 96.0369 48.1317C95.8523 47.7603 95.7633 47.3281 95.7633 46.8385C95.7633 46.3489 95.8556 45.9167 96.0435 45.5419C96.2313 45.1671 96.4917 44.8768 96.8311 44.6708C97.1673 44.4648 97.5628 44.3602 98.0144 44.3602C98.4659 44.3602 98.8713 44.4648 99.2107 44.6776C99.5469 44.8903 99.8073 45.1806 99.9918 45.5521C100.176 45.9235 100.269 46.3523 100.269 46.8385C100.269 47.3247 100.176 47.7603 99.9885 48.1351C99.804 48.5098 99.5403 48.8002 99.2041 49.0096C98.868 49.2189 98.4692 49.327 98.0144 49.327ZM98.0144 48.466C98.4527 48.466 98.7823 48.314 98.9998 48.0101C99.2173 47.7062 99.3261 47.3146 99.3261 46.8351C99.3261 46.3557 99.2173 45.9505 98.9965 45.6567C98.7757 45.363 98.4494 45.2144 98.0176 45.2144C97.721 45.2144 97.4738 45.2819 97.2827 45.4204C97.0882 45.5588 96.9465 45.7479 96.8542 45.991C96.7619 46.2341 96.7125 46.5144 96.7125 46.8351C96.7125 47.3281 96.8246 47.7231 97.0454 48.0203C97.2662 48.3174 97.5925 48.466 98.0176 48.466H98.0144Z" fill="white"/>
<path d="M101.455 49.1953V44.4885H102.345V46.4097H104.586V44.4885H105.476V49.1953H104.586V47.2707H102.345V49.1953H101.455Z" fill="white"/>
<path d="M108.218 49.327C107.879 49.327 107.592 49.2628 107.365 49.1345C107.137 49.0062 106.963 48.834 106.844 48.6213C106.725 48.4086 106.666 48.1722 106.666 47.919C106.666 47.6826 106.705 47.4733 106.788 47.2909C106.87 47.1086 106.992 46.9567 107.154 46.8317C107.315 46.7068 107.513 46.6021 107.75 46.5245C107.955 46.4637 108.185 46.4097 108.442 46.3624C108.699 46.3151 108.973 46.2712 109.256 46.2307C109.54 46.1902 109.823 46.1497 110.103 46.1092L109.78 46.2915C109.787 45.9235 109.711 45.65 109.553 45.471C109.395 45.2921 109.125 45.2043 108.742 45.2043C108.502 45.2043 108.281 45.2617 108.08 45.3765C107.879 45.4913 107.737 45.6804 107.658 45.9437L106.827 45.6837C106.939 45.2786 107.157 44.9578 107.477 44.7214C107.796 44.4817 108.222 44.3635 108.749 44.3635C109.161 44.3635 109.517 44.4344 109.823 44.5796C110.126 44.7248 110.351 44.951 110.492 45.2617C110.565 45.417 110.611 45.5791 110.627 45.7513C110.644 45.9235 110.654 46.1058 110.654 46.305V49.202H109.866V48.1249L110.018 48.2634C109.827 48.6246 109.586 48.8914 109.293 49.067C108.999 49.2425 108.637 49.3303 108.212 49.3303L108.218 49.327ZM108.376 48.5808C108.63 48.5808 108.844 48.5335 109.026 48.4423C109.207 48.3512 109.352 48.233 109.464 48.0912C109.576 47.9494 109.645 47.8008 109.682 47.6455C109.731 47.507 109.757 47.3483 109.764 47.1761C109.771 47.0006 109.774 46.8621 109.774 46.7575L110.064 46.8655C109.784 46.9094 109.527 46.9465 109.299 46.9837C109.069 47.0174 108.861 47.0512 108.676 47.085C108.492 47.1187 108.327 47.1593 108.182 47.2032C108.06 47.247 107.951 47.2977 107.856 47.3585C107.76 47.4192 107.684 47.4935 107.632 47.5813C107.576 47.6691 107.549 47.7738 107.549 47.8987C107.549 48.0236 107.579 48.1317 107.638 48.2364C107.697 48.341 107.79 48.4221 107.912 48.4828C108.034 48.5436 108.189 48.574 108.38 48.574L108.376 48.5808Z" fill="white"/>
<path d="M111.593 49.1953V48.4254C111.765 48.4558 111.893 48.4524 111.982 48.4086C112.071 48.368 112.137 48.2904 112.183 48.1756C112.226 48.0642 112.265 47.9156 112.295 47.7366C112.345 47.4733 112.384 47.1694 112.42 46.8317C112.457 46.4941 112.486 46.1261 112.516 45.731C112.546 45.336 112.569 44.9207 112.592 44.4885H115.891V49.1953H114.998V45.3495H113.389C113.373 45.5791 113.353 45.8222 113.333 46.0788C113.314 46.3354 113.287 46.592 113.264 46.8419C113.238 47.0951 113.211 47.3315 113.182 47.5509C113.152 47.7704 113.122 47.9595 113.093 48.1182C113.037 48.4322 112.954 48.6821 112.846 48.8644C112.737 49.0501 112.582 49.1683 112.384 49.2223C112.186 49.2763 111.923 49.2662 111.593 49.1953Z" fill="white"/>
<path d="M117.334 49.1953V44.4885H118.228V46.1227H119.134C119.266 46.1227 119.404 46.1227 119.553 46.1328C119.701 46.1429 119.829 46.1531 119.938 46.1767C120.185 46.2273 120.4 46.3151 120.578 46.4367C120.759 46.5582 120.897 46.7203 120.996 46.9229C121.095 47.1255 121.144 47.372 121.144 47.6657C121.144 48.0743 121.039 48.4018 120.831 48.6449C120.624 48.888 120.34 49.0501 119.988 49.1345C119.876 49.1615 119.74 49.1784 119.586 49.1851C119.431 49.1919 119.289 49.1953 119.164 49.1953H117.334ZM118.228 48.4626H119.213C119.282 48.4626 119.365 48.4626 119.457 48.4525C119.549 48.4457 119.632 48.4322 119.707 48.4119C119.843 48.3714 119.965 48.287 120.073 48.1621C120.182 48.0371 120.235 47.8717 120.235 47.6624C120.235 47.453 120.182 47.2774 120.077 47.1491C119.971 47.0208 119.836 46.9398 119.674 46.8993C119.599 46.879 119.52 46.8655 119.44 46.8588C119.361 46.852 119.286 46.8486 119.216 46.8486H118.231V48.4558L118.228 48.4626Z" fill="white"/>
<path d="M122.206 49.1953V44.4885H123.096V46.4097H125.337V44.4885H126.227V49.1953H125.337V47.2707H123.096V49.1953H122.206Z" fill="white"/>
<path d="M127.667 49.1953V44.4885H128.56V46.1227H129.163C129.295 46.1227 129.433 46.1227 129.585 46.1328C129.737 46.1396 129.862 46.1531 129.967 46.1767C130.215 46.2273 130.429 46.3151 130.61 46.4367C130.791 46.5582 130.93 46.7203 131.029 46.9229C131.127 47.1255 131.177 47.372 131.177 47.6657C131.177 48.0743 131.075 48.4018 130.867 48.6449C130.659 48.888 130.379 49.0501 130.023 49.1345C129.911 49.1615 129.776 49.1784 129.621 49.1851C129.466 49.1919 129.325 49.1953 129.193 49.1953H127.667ZM128.56 48.4626H129.246C129.318 48.4626 129.4 48.4626 129.493 48.4525C129.585 48.4457 129.667 48.4322 129.743 48.4119C129.875 48.3714 129.997 48.287 130.106 48.1621C130.215 48.0371 130.267 47.8717 130.267 47.6624C130.267 47.453 130.215 47.2774 130.109 47.1491C130.004 47.0208 129.868 46.9398 129.707 46.8993C129.634 46.879 129.555 46.8655 129.476 46.8588C129.394 46.852 129.318 46.8486 129.249 46.8486H128.563V48.4558L128.56 48.4626ZM131.681 49.1953V44.4885H132.571V49.1953H131.681Z" fill="white"/>
<path d="M136.051 49.327C135.593 49.327 135.194 49.2257 134.848 49.0197C134.502 48.8137 134.235 48.5301 134.044 48.1621C133.853 47.794 133.757 47.3686 133.757 46.8824C133.757 46.3692 133.853 45.9235 134.041 45.5453C134.229 45.1671 134.492 44.8768 134.829 44.6708C135.165 44.4648 135.56 44.3602 136.005 44.3602C136.45 44.3602 136.872 44.4716 137.202 44.6944C137.531 44.9173 137.775 45.2313 137.94 45.6432C138.101 46.0518 138.167 46.538 138.134 47.1019H137.244V46.771C137.238 46.224 137.139 45.8222 136.941 45.5588C136.743 45.2988 136.444 45.1671 136.041 45.1671C135.597 45.1671 135.26 45.3123 135.036 45.5993C134.812 45.8863 134.7 46.3016 134.7 46.8452C134.7 47.3889 134.812 47.7636 135.036 48.0439C135.26 48.3241 135.583 48.4693 136.005 48.4693C136.282 48.4693 136.523 48.4052 136.727 48.2769C136.931 48.1486 137.086 47.9629 137.202 47.7198L138.075 48.0034C137.897 48.4254 137.627 48.7496 137.264 48.9826C136.902 49.2122 136.496 49.3303 136.051 49.3303V49.327ZM134.413 47.0985V46.3894H137.693V47.0985H134.413Z" fill="white"/>
<path d="M54.5689 58.0383C54.1108 58.0383 53.712 57.9336 53.3725 57.7209C53.0364 57.5082 52.776 57.2144 52.5914 56.843C52.4069 56.4716 52.3179 56.0394 52.3179 55.5498C52.3179 55.0602 52.4102 54.628 52.598 54.2532C52.7859 53.8784 53.0462 53.5881 53.3857 53.3821C53.7219 53.1761 54.1174 53.0715 54.5689 53.0715C55.0204 53.0715 55.4258 53.1761 55.7653 53.3889C56.1015 53.6016 56.3618 53.892 56.5464 54.2634C56.731 54.6348 56.8233 55.0636 56.8233 55.5498C56.8233 56.036 56.731 56.4716 56.5431 56.8464C56.3585 57.2212 56.0949 57.5115 55.7587 57.7209C55.4225 57.9302 55.0237 58.0383 54.5689 58.0383ZM54.5689 57.1806C55.0073 57.1806 55.3368 57.0287 55.5544 56.7248C55.7719 56.4209 55.8806 56.0293 55.8806 55.5498C55.8806 55.0703 55.7719 54.6652 55.5511 54.3714C55.3302 54.0777 55.004 53.9291 54.5722 53.9291C54.2756 53.9291 54.0284 53.9966 53.8372 54.1351C53.6428 54.2735 53.5011 54.4626 53.4088 54.7057C53.3165 54.9488 53.2671 55.229 53.2671 55.5498C53.2671 56.0428 53.3791 56.4378 53.5999 56.7349C53.8208 57.0321 54.147 57.1806 54.5722 57.1806H54.5689Z" fill="white"/>
<path d="M59.104 57.91V54.0236H57.5352V53.2032H61.5626V54.0236H59.9938V57.91H59.104Z" fill="white"/>
<path d="M62.1987 58.9533V57.1773C62.4525 57.1773 62.6305 57.0895 62.7425 56.9173C62.8513 56.7451 62.9403 56.4513 63.0029 56.036C63.0425 55.7828 63.0754 55.516 63.1018 55.229C63.1282 54.9454 63.1512 54.6348 63.171 54.3039C63.1908 53.973 63.2105 53.605 63.2303 53.2032H66.5228V57.1773H66.9744V58.9533H66.1339V57.9066H63.0458V58.9533H62.1987ZM63.4709 57.1773H65.633V53.9359H64.0246C64.0147 54.1283 64.0015 54.3241 63.9884 54.5267C63.9752 54.7293 63.962 54.9319 63.9455 55.1311C63.929 55.3303 63.9126 55.5228 63.8928 55.7051C63.873 55.8875 63.8499 56.0529 63.8236 56.2015C63.7906 56.4311 63.7478 56.6235 63.7016 56.7755C63.6555 56.9308 63.5764 57.0625 63.4709 57.1705V57.1773Z" fill="white"/>
<path d="M70.1186 58.0383C69.6605 58.0383 69.2617 57.937 68.9156 57.731C68.5696 57.525 68.3026 57.2414 68.1114 56.8734C67.9203 56.5053 67.8247 56.0799 67.8247 55.5937C67.8247 55.0805 67.9203 54.6348 68.1081 54.2566C68.296 53.8784 68.5597 53.5881 68.8958 53.3821C69.232 53.1761 69.6275 53.0715 70.0725 53.0715C70.5174 53.0715 70.9393 53.1829 71.2688 53.4057C71.5984 53.6286 71.8423 53.9426 72.0071 54.3545C72.1686 54.7631 72.2345 55.2493 72.2016 55.8132H71.3117V55.4823C71.3051 54.9353 71.2062 54.5335 71.0085 54.2701C70.8107 54.0101 70.5108 53.8784 70.1087 53.8784C69.6638 53.8784 69.3276 54.0236 69.1035 54.3106C68.8794 54.5976 68.7673 55.0129 68.7673 55.5566C68.7673 56.1002 68.8794 56.475 69.1035 56.7552C69.3276 57.0355 69.6506 57.1806 70.0725 57.1806C70.3493 57.1806 70.5899 57.1165 70.7942 56.9882C70.9986 56.8599 71.1535 56.6742 71.2688 56.4311L72.1422 56.7147C71.9643 57.1367 71.694 57.4609 71.3315 57.6939C70.9689 57.9235 70.5635 58.0416 70.1186 58.0416V58.0383ZM68.4806 55.8132V55.1041H71.7599V55.8132H68.4806Z" fill="white"/>
<path d="M72.986 57.91V57.1401C73.1573 57.1705 73.2859 57.1671 73.3749 57.1232C73.4639 57.0827 73.5298 57.0051 73.5759 56.8903C73.6188 56.7788 73.6583 56.6303 73.688 56.4513C73.7374 56.188 73.777 55.8841 73.8132 55.5464C73.8495 55.2088 73.8791 54.8407 73.9088 54.4457C73.9385 54.0506 73.9615 53.6353 73.9846 53.2032H77.2837V57.91H76.3905V54.0642H74.7822C74.7657 54.2938 74.7459 54.5369 74.7262 54.7935C74.7064 55.0501 74.68 55.3067 74.6569 55.5566C74.6306 55.8098 74.6042 56.0461 74.5745 56.2656C74.5449 56.4851 74.5152 56.6742 74.4856 56.8329C74.4295 57.1469 74.3471 57.3967 74.2384 57.5791C74.1296 57.7648 73.9747 57.8829 73.777 57.937C73.5792 57.991 73.3155 57.9809 72.986 57.91Z" fill="white"/>
<path d="M80.7245 58.0383C80.2664 58.0383 79.8676 57.9336 79.5282 57.7209C79.192 57.5082 78.9316 57.2144 78.7471 56.843C78.5625 56.4716 78.4735 56.0394 78.4735 55.5498C78.4735 55.0602 78.5658 54.628 78.7537 54.2532C78.9415 53.8784 79.2019 53.5881 79.5414 53.3821C79.8775 53.1761 80.273 53.0715 80.7245 53.0715C81.1761 53.0715 81.5815 53.1761 81.9209 53.3889C82.2571 53.6016 82.5175 53.892 82.702 54.2634C82.8866 54.6348 82.9789 55.0636 82.9789 55.5498C82.9789 56.036 82.8866 56.4716 82.6987 56.8464C82.5142 57.2212 82.2505 57.5115 81.9143 57.7209C81.5782 57.9302 81.1794 58.0383 80.7245 58.0383ZM80.7245 57.1806C81.1629 57.1806 81.4925 57.0287 81.71 56.7248C81.9275 56.4209 82.0363 56.0293 82.0363 55.5498C82.0363 55.0703 81.9275 54.6652 81.7067 54.3714C81.4859 54.0777 81.1596 53.9291 80.7278 53.9291C80.4312 53.9291 80.184 53.9966 79.9929 54.1351C79.7984 54.2735 79.6567 54.4626 79.5644 54.7057C79.4721 54.9488 79.4227 55.229 79.4227 55.5498C79.4227 56.0428 79.5348 56.4378 79.7556 56.7349C79.9764 57.0321 80.3027 57.1806 80.7278 57.1806H80.7245Z" fill="white"/>
<path d="M86.8877 57.91V56.2724C86.7328 56.3534 86.5483 56.4209 86.3406 56.4716C86.1297 56.5222 85.9089 56.5492 85.6782 56.5492C85.2069 56.5492 84.8311 56.4412 84.5444 56.2251C84.2577 56.009 84.0731 55.695 83.9907 55.2864C83.9676 55.1649 83.9512 55.04 83.9413 54.9083C83.9314 54.78 83.9248 54.6618 83.9215 54.5537C83.9215 54.4457 83.9215 54.3647 83.9215 54.314V53.2065H84.8246V54.314C84.8246 54.3883 84.8246 54.4896 84.8344 54.6111C84.841 54.7361 84.8542 54.8543 84.8806 54.9691C84.9333 55.229 85.0421 55.4249 85.2036 55.5498C85.3651 55.6747 85.5925 55.7389 85.8891 55.7389C86.1033 55.7389 86.2945 55.7119 86.4659 55.6545C86.6373 55.5971 86.7823 55.5262 86.8976 55.435V53.2032H87.7941V57.91H86.8976H86.8877Z" fill="white"/>
<path d="M89.2244 57.91V53.2032H90.1142V55.1244H92.3554V53.2032H93.2453V57.91H92.3554V55.9854H90.1142V57.91H89.2244Z" fill="white"/>
<path d="M94.6855 57.91V53.2032H95.5787V54.8374H96.1818C96.3137 54.8374 96.4521 54.8374 96.6037 54.8475C96.7553 54.8543 96.8806 54.8678 96.986 54.8914C97.2332 54.942 97.4474 55.0298 97.6287 55.1514C97.81 55.2729 97.9484 55.435 98.0473 55.6376C98.1461 55.8402 98.1956 56.0867 98.1956 56.3804C98.1956 56.789 98.0934 57.1165 97.8858 57.3596C97.6781 57.6027 97.398 57.7648 97.0421 57.8492C96.93 57.8762 96.7949 57.8931 96.64 57.8998C96.4851 57.9066 96.3433 57.91 96.2115 57.91H94.6855ZM95.5787 57.1773H96.2642C96.3367 57.1773 96.4191 57.1773 96.5114 57.1671C96.6037 57.1604 96.6861 57.1469 96.7619 57.1266C96.8937 57.0861 97.0157 57.0017 97.1244 56.8768C97.2332 56.7518 97.2859 56.5864 97.2859 56.377C97.2859 56.1677 97.2332 55.9921 97.1277 55.8638C97.0223 55.7355 96.8872 55.6545 96.7257 55.614C96.6532 55.5937 96.574 55.5802 96.4949 55.5734C96.4126 55.5667 96.3367 55.5633 96.2675 55.5633H95.582V57.1705L95.5787 57.1773ZM98.6998 57.91V53.2032H99.5897V57.91H98.6998Z" fill="white"/>
<path d="M103.073 58.0383C102.615 58.0383 102.217 57.937 101.87 57.731C101.524 57.525 101.257 57.2414 101.066 56.8734C100.875 56.5053 100.78 56.0799 100.78 55.5937C100.78 55.0805 100.875 54.6348 101.063 54.2566C101.251 53.8784 101.515 53.5881 101.851 53.3821C102.187 53.1761 102.582 53.0715 103.027 53.0715C103.472 53.0715 103.894 53.1829 104.224 53.4057C104.553 53.6286 104.797 53.9426 104.962 54.3545C105.123 54.7631 105.189 55.2493 105.156 55.8132H104.267V55.4823C104.26 54.9353 104.161 54.5335 103.963 54.2701C103.766 54.0101 103.466 53.8784 103.064 53.8784C102.619 53.8784 102.282 54.0236 102.058 54.3106C101.834 54.5976 101.722 55.0129 101.722 55.5566C101.722 56.1002 101.834 56.475 102.058 56.7552C102.282 57.0355 102.605 57.1806 103.027 57.1806C103.304 57.1806 103.545 57.1165 103.749 56.9882C103.953 56.8599 104.108 56.6742 104.224 56.4311L105.097 56.7147C104.919 57.1367 104.649 57.4609 104.286 57.6939C103.924 57.9235 103.518 58.0416 103.073 58.0416V58.0383ZM101.435 55.8132V55.1041H104.715V55.8132H101.435Z" fill="white"/>
<path d="M108.317 60V53.2032H109.108V56.5898H109.21V60H108.317ZM110.476 58.0383C110.038 58.0383 109.668 57.9302 109.369 57.7107C109.072 57.4913 108.844 57.1941 108.693 56.8194C108.541 56.4446 108.462 56.0225 108.462 55.5498C108.462 55.0771 108.538 54.655 108.69 54.2802C108.841 53.9055 109.065 53.6117 109.362 53.3922C109.659 53.1761 110.024 53.0681 110.456 53.0681C110.888 53.0681 111.26 53.1761 111.573 53.3922C111.887 53.6083 112.127 53.9021 112.298 54.2769C112.47 54.6517 112.552 55.0737 112.552 55.5464C112.552 56.0191 112.467 56.4412 112.298 56.816C112.13 57.1908 111.89 57.4879 111.58 57.7074C111.27 57.9268 110.901 58.0349 110.473 58.0349L110.476 58.0383ZM110.354 57.2144C110.637 57.2144 110.871 57.1401 111.059 56.9916C111.244 56.843 111.382 56.6438 111.475 56.3939C111.567 56.1441 111.613 55.8604 111.613 55.5498C111.613 55.2392 111.567 54.9623 111.475 54.7124C111.382 54.4626 111.241 54.2634 111.053 54.1148C110.862 53.9662 110.621 53.892 110.324 53.892C110.047 53.892 109.817 53.9629 109.639 54.1013C109.457 54.2397 109.326 54.4356 109.24 54.6854C109.154 54.9353 109.111 55.2223 109.111 55.5464C109.111 55.8706 109.154 56.1609 109.24 56.4108C109.326 56.6607 109.461 56.8565 109.645 56.9983C109.83 57.1401 110.067 57.211 110.361 57.211L110.354 57.2144Z" fill="white"/>
<path d="M115.782 58.0383C115.324 58.0383 114.925 57.937 114.579 57.731C114.233 57.525 113.966 57.2414 113.775 56.8734C113.584 56.5053 113.488 56.0799 113.488 55.5937C113.488 55.0805 113.584 54.6348 113.772 54.2566C113.96 53.8784 114.223 53.5881 114.559 53.3821C114.896 53.1761 115.291 53.0715 115.736 53.0715C116.181 53.0715 116.603 53.1829 116.932 53.4057C117.262 53.6286 117.506 53.9426 117.671 54.3545C117.832 54.7631 117.898 55.2493 117.865 55.8132H116.975V55.4823C116.969 54.9353 116.87 54.5335 116.672 54.2701C116.474 54.0101 116.174 53.8784 115.772 53.8784C115.327 53.8784 114.991 54.0236 114.767 54.3106C114.543 54.5976 114.431 55.0129 114.431 55.5566C114.431 56.1002 114.543 56.475 114.767 56.7552C114.991 57.0355 115.314 57.1806 115.736 57.1806C116.013 57.1806 116.253 57.1165 116.458 56.9882C116.662 56.8599 116.817 56.6742 116.932 56.4311L117.806 56.7147C117.628 57.1367 117.358 57.4609 116.995 57.6939C116.632 57.9235 116.227 58.0416 115.782 58.0416V58.0383ZM114.147 55.8132V55.1041H117.427V55.8132H114.147Z" fill="white"/>
<path d="M119.071 57.91V53.2032H119.925V57.0895H121.365V53.2032H122.219V57.0895H123.656V53.2032H124.509V57.91H119.065H119.071Z" fill="white"/>
<path d="M127.996 58.0383C127.538 58.0383 127.139 57.937 126.793 57.731C126.447 57.525 126.18 57.2414 125.989 56.8734C125.798 56.5053 125.703 56.0799 125.703 55.5937C125.703 55.0805 125.798 54.6348 125.986 54.2566C126.174 53.8784 126.437 53.5881 126.774 53.3821C127.11 53.1761 127.505 53.0715 127.95 53.0715C128.395 53.0715 128.817 53.1829 129.147 53.4057C129.476 53.6286 129.72 53.9426 129.885 54.3545C130.046 54.7631 130.112 55.2493 130.079 55.8132H129.189V55.4823C129.183 54.9353 129.084 54.5335 128.886 54.2701C128.689 54.0101 128.389 53.8784 127.987 53.8784C127.542 53.8784 127.205 54.0236 126.981 54.3106C126.757 54.5976 126.645 55.0129 126.645 55.5566C126.645 56.1002 126.757 56.475 126.981 56.7552C127.205 57.0355 127.528 57.1806 127.95 57.1806C128.227 57.1806 128.468 57.1165 128.672 56.9882C128.876 56.8599 129.031 56.6742 129.147 56.4311L130.02 56.7147C129.842 57.1367 129.572 57.4609 129.209 57.6939C128.847 57.9235 128.441 58.0416 127.996 58.0416V58.0383ZM126.358 55.8132V55.1041H129.638V55.8132H126.358Z" fill="white"/>
<path d="M131.286 57.91V53.2032H132.176V55.1244H134.417V53.2032H135.307V57.91H134.417V55.9854H132.176V57.91H131.286Z" fill="white"/>
<path d="M140.619 53.2032V57.91H139.766V54.6382L137.469 57.91H136.747V53.2032H137.6V56.4108L139.901 53.2032H140.619Z" fill="white"/>
<path d="M141.809 57.91L142.969 56.0495H143.909L142.755 57.91H141.806H141.809ZM144.858 57.91V56.2757H143.948C143.839 56.2757 143.711 56.2724 143.563 56.2622C143.414 56.2521 143.273 56.2386 143.144 56.215C142.801 56.1508 142.515 55.9989 142.284 55.7558C142.053 55.5127 141.938 55.1784 141.938 54.753C141.938 54.3275 142.046 54.0101 142.264 53.7569C142.482 53.507 142.755 53.345 143.091 53.2707C143.236 53.2369 143.385 53.2167 143.536 53.2133C143.688 53.2099 143.816 53.2065 143.922 53.2065H145.748V57.9133H144.858V57.91ZM143.872 55.543H144.858V53.9358H143.872C143.81 53.9358 143.734 53.9358 143.642 53.946C143.549 53.9527 143.464 53.9662 143.378 53.9932C143.289 54.0203 143.207 54.0675 143.124 54.1317C143.042 54.1992 142.976 54.2836 142.926 54.3849C142.877 54.4896 142.851 54.6078 142.851 54.7394C142.851 54.9387 142.907 55.1041 143.015 55.2324C143.124 55.3607 143.259 55.4451 143.411 55.489C143.493 55.5127 143.576 55.5262 143.658 55.5329C143.741 55.5397 143.81 55.543 143.872 55.543Z" fill="white"/>
</g>
<defs>
<linearGradient id="paint0_linear_36_2758" x1="1.455e-07" y1="42.857" x2="46.5565" y2="36.8807" gradientUnits="userSpaceOnUse">
<stop stop-color="#FF9345"/>
<stop offset="0.504808" stop-color="#FF6625"/>
<stop offset="1" stop-color="#EA0C0C"/>
</linearGradient>
<linearGradient id="paint1_linear_36_2758" x1="1.455e-07" y1="42.857" x2="46.5565" y2="36.8807" gradientUnits="userSpaceOnUse">
<stop stop-color="#FF9345"/>
<stop offset="0.504808" stop-color="#FF6625"/>
<stop offset="1" stop-color="#EA0C0C"/>
</linearGradient>
<linearGradient id="paint2_linear_36_2758" x1="1.455e-07" y1="42.857" x2="46.5565" y2="36.8807" gradientUnits="userSpaceOnUse">
<stop stop-color="#FF9345"/>
<stop offset="0.504808" stop-color="#FF6625"/>
<stop offset="1" stop-color="#EA0C0C"/>
</linearGradient>
<clipPath id="clip0_36_2758">
<rect width="188" height="60" fill="white"/>
</clipPath>
</defs>
</svg>
