<svg width="327" height="260" viewBox="0 0 327 260" fill="none" xmlns="http://www.w3.org/2000/svg">
<rect opacity="0.5" width="327" height="260" fill="white"/>
<g clip-path="url(#clip0_2001_95)">
<path d="M54 38C34.648 38 19 53.6942 19 73.0189C19 92.3813 34.6858 108 53.9622 108C73.2387 108 89 92.3056 89 73.0189C89 53.6186 73.3522 38 54 38ZM54 50.631C59.9719 50.631 65.6037 52.9379 69.7992 57.2113C73.9947 61.409 76.3758 67.0438 76.3758 73.0189C76.3758 78.9939 74.0703 84.6287 69.7992 88.8264C65.6037 93.0242 59.9719 95.4068 54 95.4068C48.0281 95.4068 42.3963 93.0998 38.2008 88.8264C34.0054 84.5909 31.6242 78.9939 31.6242 73.0189C31.6242 67.0438 34.0054 61.409 38.2008 57.1734C42.3963 52.9379 48.0281 50.631 54 50.631Z" fill="#EE3D24"/>
<path d="M67.8334 64.5859C67.8334 69.1996 64.0917 72.9813 59.4425 72.9813C54.8315 72.9813 51.0518 69.2374 51.0518 64.5859C51.0518 59.9722 54.7937 56.1904 59.4425 56.1904C64.1295 56.1904 67.8334 59.9722 67.8334 64.5859Z" fill="#EE3D24"/>
</g>
<defs>
<clipPath id="clip0_2001_95">
<rect width="70" height="70" fill="white" transform="translate(19 38)"/>
</clipPath>
</defs>
</svg>
