<svg width="327" height="260" viewBox="0 0 327 260" fill="none" xmlns="http://www.w3.org/2000/svg">
<rect opacity="0.5" width="327" height="260" fill="white"/>
<path d="M55.9119 67.043C52.3635 67.043 50.1985 64.4781 50.1985 61.1631C50.1985 57.848 52.2946 55.2328 55.9119 55.2328C59.5291 55.2328 61.6731 57.682 61.6731 61.1631C61.6731 64.5226 59.5172 67.043 55.9119 67.043ZM55.9119 53.2491C51.1927 53.2491 47.8569 56.7509 47.8569 61.1631C47.8569 65.5752 51.1028 69.0474 55.9119 69.0474C60.7209 69.0474 64.1974 65.51 64.1974 61.1572C64.1974 56.6531 60.7479 53.2431 55.9119 53.2431M196.41 53.5604V64.2231L186.274 53.5604H185.211V68.745H187.439V57.9963L197.551 68.7658H198.617V53.5604H196.41ZM166.463 53.5574V61.9489C166.463 66.3403 168.859 69.0652 173.218 69.0652C177.662 69.0652 179.956 66.2246 179.956 61.8925V53.5574H177.611V61.8599C177.611 65.3766 176.003 67.046 173.218 67.046C170.338 67.046 168.853 65.1394 168.853 61.7947V53.5574H166.463ZM22 53.5604V68.745H24.2997V62.0823H30.9593V60.0927H24.2997V55.5915H31.8876V53.5604H22ZM137.83 53.5604V68.745H140.127V62.0823H146.79V60.0927H140.127V55.5915H147.724V53.5604H137.83ZM36.3014 53.5604V68.745H46.8418V66.6872H38.649V53.5604H36.3014ZM70.7403 61.6672V55.5471H74.4024C76.5135 55.5471 77.9269 56.4663 77.9269 58.4737C77.9269 60.3981 76.4926 61.6672 74.3156 61.6672H70.7403ZM76.4716 63.3721C79.3612 62.5864 80.2895 60.3091 80.2895 58.4737C80.2895 55.4848 77.9449 53.5574 74.5671 53.5574H68.3896V68.745H70.7403V63.6538H73.7556L78.1904 68.742H81.2567L76.4716 63.3721ZM115.8 71.295C112.689 71.295 109.213 69.2431 109.213 65.6049C109.213 62.7198 111.629 61.1957 113.791 59.8495L122.346 68.3417C121.539 69.2796 120.534 70.031 119.402 70.5432C118.27 71.0555 117.039 71.3161 115.794 71.3069M110.896 53.6079C112.132 52.4218 113.59 51.0311 115.073 51.0311C116.63 51.0311 117.741 51.8466 117.741 53.4033C117.741 54.96 116.205 56.0067 114.378 57.0593L110.896 53.6079ZM125.38 67.977C126.787 65.94 127.724 63.1023 127.991 60.3032H125.559C125.381 62.427 124.777 64.4944 123.784 66.3847L115.893 58.613C117.947 57.3351 119.81 55.7457 119.81 53.1927C119.81 50.8562 118.25 49 115.333 49C113.087 49 111.102 50.3699 107.656 53.765L112.222 58.2839C109.581 59.8703 106.697 62.0082 106.697 66.0259C106.697 70.3521 110.818 73.2995 115.555 73.2995C117.106 73.3209 118.646 73.0267 120.078 72.435C121.509 71.8434 122.803 70.9669 123.879 69.8599L126.937 72.8844L128.655 71.2061L125.38 67.977ZM88.2337 63.7398L90.8538 57.5575L90.8898 57.3795H90.9706L91.0155 57.5575L93.6147 63.7398H88.2337ZM91.4707 53.5574H90.4166L83.6193 68.745H86.1376L87.4611 65.5545H94.3962L95.7347 68.745H98.298L91.4707 53.5574ZM153.527 63.7398L156.129 57.5575L156.174 57.3795H156.267L156.312 57.5575L158.911 63.7398H153.527ZM156.749 53.5574H155.698L148.907 68.745H151.428L152.755 65.5545H159.687L161.028 68.745H163.597L156.749 53.5574ZM206.933 63.7398L209.538 57.5575L209.583 57.3795H209.67L209.715 57.5575L212.326 63.7398H206.933ZM210.158 53.5574H209.098L202.324 68.745H204.84L206.157 65.5545H213.077L214.428 68.745H216.985L210.158 53.5574ZM84.9578 86.2127H83.5325L79.466 89.6079L80.0499 86.2127H78.5198L77.2711 93.7739H78.7683L79.4181 89.9904L82.3167 93.1809C82.8707 93.8569 83.6492 94.1327 84.4128 93.2342L80.9123 89.599L84.9578 86.2127ZM71.2853 90.4885H74.7019C74.4683 92.2676 73.1657 93.0623 71.944 93.0623C71.5692 93.0456 71.2016 92.9549 70.8627 92.7955C70.5238 92.6361 70.2206 92.4113 69.9707 92.1342L69.285 92.7924C69.5994 93.1637 69.9934 93.4609 70.4383 93.6624C70.8833 93.864 71.368 93.9649 71.8572 93.9577C74.3815 93.9577 76.3967 92.3032 76.3967 89.3647C76.3967 86.8681 74.5402 86.0111 72.9621 86.0111C71.9484 85.9885 70.9626 86.3417 70.1983 87.0015L70.7492 87.6301C71.2306 87.1804 71.8662 86.9282 72.5279 86.9244C73.7557 86.9244 74.9235 87.8762 74.7977 89.4952H71.5188L71.2853 90.4885ZM122.846 90.5893C122.469 91.7902 121.349 92.8933 120.217 92.8933C119.418 92.8933 118.561 92.1668 118.72 90.4322C118.918 88.5107 119.678 86.9274 121.675 86.9274C122.255 86.9551 122.831 87.0385 123.394 87.1764L122.846 90.5893ZM121.714 86.0141C118.72 86.0141 117.223 88.0452 117.082 90.9718C116.986 92.8547 118.067 93.9607 119.705 93.9607C120.338 93.9596 120.959 93.7932 121.506 93.4782C122.052 93.1632 122.506 92.7108 122.819 92.1668L123.032 93.7858H124.11L124.134 91.8258L125.008 86.6753C123.964 86.2453 122.845 86.0207 121.714 86.0141ZM94.4082 90.4114H98.6962L98.8909 89.2639H94.6358L94.4082 90.4114ZM112.327 93.0623C111.527 93.1296 110.723 93.0978 109.931 92.9674C109.988 92.4455 110.231 90.9718 110.324 90.3936C110.906 90.3364 111.49 90.3117 112.075 90.3195C113.33 90.3195 114.132 90.7613 114.132 91.5056C114.132 92.4574 113.45 92.9674 112.336 93.0771M110.875 86.954C111.302 86.8926 111.733 86.8658 112.165 86.874C113.596 86.874 113.926 87.4166 113.926 87.9622C113.926 88.7569 113.028 89.3706 112.309 89.3855C111.59 89.4003 110.485 89.5248 110.485 89.5248C110.566 88.828 110.758 87.5678 110.875 86.954ZM114.067 89.6938C114.947 89.3469 115.582 88.6027 115.528 87.7191C115.453 86.533 114.369 85.9963 112.288 85.9963C111.377 85.99 110.467 86.0624 109.569 86.2127C109.291 87.636 108.608 91.5322 108.335 93.7235C109.287 93.8691 110.247 93.9494 111.21 93.9637C113.638 93.9637 115.702 93.1245 115.702 91.2624C115.702 90.5686 114.956 89.934 114.061 89.7116M91.2132 89.599C91.0784 91.8258 90.1202 93.0652 88.5541 93.0652C87.2964 93.0652 86.3891 91.8643 86.5628 89.8451C86.7185 88.3388 87.6408 86.9303 89.0901 86.9303C90.4765 86.9303 91.3329 87.9533 91.2132 89.599ZM89.4165 86.017C86.6437 86.017 84.9788 88.321 84.9788 90.536C84.9788 92.6116 86.2125 93.9637 88.3445 93.9637C91.0035 93.9637 92.8212 92.066 92.8212 89.3262C92.8212 87.1497 91.1622 86.017 89.4165 86.017ZM145.613 85.9963C144.415 85.9963 143.535 86.6931 142.756 87.6775C142.58 86.5953 141.843 85.9963 140.468 85.9963C139.444 85.9963 138.315 86.6931 137.651 87.7754L137.441 86.1712H136.339V88.1253L135.372 93.7739H136.887L137.636 89.2758C138.037 87.9652 139.133 87.0549 140.106 87.0549C141.079 87.0549 141.409 87.7487 141.16 89.2224L140.391 93.7739H141.906L142.717 89.1127C143.163 87.9652 144.214 87.0549 145.17 87.0549C146.125 87.0549 146.457 87.7487 146.197 89.2224L145.43 93.7739H146.957L147.763 89.089C148.107 87.1112 147.442 85.9874 145.61 85.9874M160.69 86.2127L160.091 89.2491C159.549 91.3603 159.133 92.5967 157.456 92.6649L157.591 93.937C160.004 94.023 160.902 92.0245 161.543 89.5634L162.034 87.1231H164.987L163.9 93.7739H165.397L166.712 86.2009L160.69 86.2127ZM107.835 86.2127H106.416L102.352 89.6079L102.927 86.2127H101.415L100.155 93.7739H101.631L102.29 89.9904L105.206 93.1809C105.748 93.8569 106.533 94.1327 107.302 93.2342L103.79 89.599L107.835 86.2127ZM155.027 90.5893C154.65 91.7902 153.53 92.8933 152.401 92.8933C151.602 92.8933 150.736 92.1668 150.904 90.4322C151.099 88.5107 151.859 86.9274 153.851 86.9274C154.434 86.9547 155.014 87.0381 155.581 87.1764L155.027 90.5893ZM153.898 86.0141C150.88 86.0141 149.407 88.0452 149.254 90.9718C149.152 92.8547 150.233 93.9607 151.871 93.9607C152.504 93.9596 153.125 93.7932 153.672 93.4782C154.219 93.1632 154.672 92.7108 154.985 92.1668L155.198 93.7858H156.291L156.309 91.8258L157.186 86.6783C156.142 86.2476 155.023 86.023 153.892 86.017M132.59 89.5219C132.392 91.4344 131.632 93.0237 129.629 93.0237C129.048 92.9978 128.471 92.9134 127.907 92.7717L128.476 89.3647C128.847 88.1787 129.991 87.0608 131.096 87.0608C131.904 87.0608 132.761 87.7754 132.593 89.5189M131.635 85.9904C131.004 85.99 130.384 86.1542 129.837 86.4665C129.29 86.7788 128.836 87.2282 128.521 87.7695L128.302 86.1653H127.209V88.1193L126.311 93.2669L125.712 96.9911H127.209L127.772 93.7294C128.382 93.8626 129.004 93.9322 129.629 93.937C132.641 93.937 134.12 91.8999 134.264 88.9763C134.36 87.1023 133.285 86.0111 131.65 86.0111" fill="#EA0C0C"/>
</svg>
