<svg width="327" height="260" viewBox="0 0 327 260" fill="none" xmlns="http://www.w3.org/2000/svg">
<rect opacity="0.5" width="327" height="260" fill="white"/>
<g clip-path="url(#clip0_2001_97)">
<path d="M133.341 58.0064H143.296L157 80.335H153.407C150.515 80.1729 147.033 79.36 144.279 75.3921L138.319 65.6864L129.327 80.335H119.639L133.341 58.0071V58.0064ZM88.1717 58.0071H107.284C117.32 58.0071 117.511 71.5107 109.3 73.3286L118.434 80.335H107.702L101.379 75.1136L96.2074 76.0393V80.335H88.1717V58.0079V58.0071ZM96.2082 63.6129V69.6086L104.607 68.3586C107.926 67.8643 107.4 63.6129 104.607 63.6129H96.2082ZM83.4868 58H74.5267V80.3357H83.486V58H83.4868ZM57.6597 80.3357H47.7061L34 58.0071H37.5954C40.4862 58.17 43.9696 58.9821 46.7243 62.95L52.6814 72.6557L61.6757 58.0079H71.3629L57.6597 80.3357ZM68.8789 87.3471C68.8963 87.3471 68.9109 87.3543 68.9247 87.3657L69.0281 87.4757C68.9516 87.5564 68.868 87.63 68.7777 87.6936C68.5835 87.8286 68.3618 87.9207 68.1278 87.9636C67.989 87.9888 67.8482 88.001 67.7071 88C67.4502 88 67.2151 87.9571 67.004 87.8679C66.7946 87.7828 66.606 87.655 66.4509 87.4929C66.2936 87.3217 66.1724 87.1217 66.0943 86.9043C66.0076 86.6571 65.9648 86.3971 65.9676 86.1357C65.9676 85.86 66.0135 85.6086 66.1008 85.38C66.1867 85.1514 66.3061 84.9564 66.4669 84.7914C66.6234 84.6286 66.809 84.5014 67.0302 84.4107C67.25 84.3207 67.4924 84.2771 67.7566 84.2771C68.0106 84.2771 68.2333 84.3143 68.4291 84.3914C68.6241 84.4679 68.8032 84.5771 68.964 84.7186L68.8811 84.8329C68.868 84.8557 68.8454 84.865 68.817 84.865C68.7952 84.865 68.761 84.8471 68.7158 84.8093C68.6535 84.7618 68.587 84.7197 68.5171 84.6836C68.4176 84.632 68.3133 84.5899 68.2056 84.5579C68.0597 84.518 67.9087 84.499 67.7573 84.5014C67.5346 84.5014 67.3308 84.54 67.143 84.6164C66.962 84.6889 66.7991 84.799 66.6656 84.9393C66.5324 85.08 66.4298 85.2536 66.3526 85.455C66.276 85.6739 66.2386 85.9042 66.242 86.1357C66.242 86.3943 66.2799 86.6243 66.3548 86.8264C66.4312 87.0286 66.5353 87.2007 66.6663 87.3407C66.7988 87.4814 66.9545 87.5886 67.1358 87.6621C67.3163 87.7371 67.5113 87.7743 67.7209 87.7743C67.8541 87.7743 67.9727 87.7664 68.0746 87.7486C68.1725 87.7321 68.2683 87.7057 68.3607 87.67C68.4466 87.6372 68.5286 87.5953 68.6052 87.545C68.678 87.495 68.753 87.4371 68.8257 87.3707C68.833 87.3629 68.8454 87.3564 68.8527 87.3536C68.8605 87.3489 68.8697 87.3466 68.8789 87.3471ZM73.7203 84.5421H72.4211V87.9614H72.1504V84.5429H70.8425V84.3186H73.7203V84.5421ZM76.8666 84.3179C77.3011 84.3179 77.6264 84.4107 77.8477 84.5979C78.0675 84.7857 78.1774 85.0507 78.1774 85.3986C78.1774 85.5579 78.1468 85.7043 78.0879 85.8386C78.0245 85.9729 77.9365 86.0886 77.8258 86.1857C77.7123 86.2814 77.5747 86.3571 77.411 86.4114C77.2509 86.4657 77.0689 86.4936 76.8666 86.4936H76.1759V87.9614H75.9102V84.3186L76.8666 84.3179ZM76.8666 86.2807C77.0267 86.2807 77.1745 86.2593 77.3033 86.2157C77.4306 86.1707 77.5413 86.1086 77.6322 86.03C77.7196 85.95 77.788 85.8564 77.8382 85.75C77.8855 85.6429 77.911 85.525 77.911 85.3986C77.911 85.1171 77.8222 84.9036 77.6475 84.7521C77.4721 84.6021 77.213 84.5257 76.8666 84.5257H76.1752V86.2807H76.8666ZM83.7873 86.1371C83.7873 86.4193 83.7459 86.6743 83.6585 86.9029C83.5741 87.1314 83.4525 87.3286 83.2983 87.49C83.144 87.6536 82.9562 87.7771 82.7393 87.8671C82.5117 87.9567 82.2683 88.0014 82.0231 87.9986C81.7604 87.9986 81.5209 87.955 81.307 87.8671C81.0952 87.7828 80.9047 87.6541 80.7487 87.49C80.5886 87.3208 80.466 87.1209 80.3885 86.9029C80.3012 86.6568 80.2581 86.3977 80.2611 86.1371C80.2611 85.8571 80.3048 85.605 80.3885 85.3743C80.4714 85.1457 80.5944 84.9493 80.7487 84.7879C80.903 84.6264 81.0893 84.5 81.307 84.41C81.5202 84.3214 81.7604 84.2771 82.0231 84.2771C82.2822 84.2771 82.5224 84.32 82.7393 84.4093C82.9562 84.4986 83.144 84.6236 83.2983 84.7864C83.4533 84.9486 83.5741 85.145 83.6585 85.3743C83.7459 85.6043 83.7873 85.8571 83.7873 86.1371ZM83.51 86.1371C83.51 85.885 83.4751 85.6557 83.4031 85.4543C83.3387 85.2639 83.2346 85.0887 83.0974 84.94C82.9685 84.7983 82.8081 84.6876 82.6287 84.6164C82.4366 84.5394 82.2307 84.5007 82.0231 84.5029C81.8019 84.5029 81.5995 84.5414 81.419 84.6164C81.2388 84.6885 81.077 84.7987 80.9452 84.9393C80.8157 85.0786 80.7123 85.2507 80.6396 85.4536C80.5668 85.6557 80.534 85.885 80.534 86.1371C80.534 86.3929 80.5675 86.6207 80.6403 86.8229C80.7131 87.025 80.815 87.1964 80.9452 87.3371C81.0792 87.4779 81.2364 87.585 81.419 87.6593C81.5995 87.7336 81.8019 87.77 82.0231 87.77C82.2444 87.77 82.446 87.7336 82.6287 87.6593C82.8121 87.585 82.9686 87.4779 83.0974 87.3371C83.2298 87.1964 83.3303 87.025 83.4031 86.8229C83.4758 86.6207 83.51 86.3929 83.51 86.1371ZM89.0618 84.3179V87.9607H88.7925V84.9679C88.7925 84.9129 88.7954 84.8564 88.7983 84.7979C88.7983 84.7421 88.8049 84.6821 88.8129 84.62C88.7912 84.6704 88.7662 84.7193 88.7379 84.7664C88.7139 84.8093 88.6877 84.8521 88.6651 84.8879L86.529 87.8771C86.5151 87.8997 86.4965 87.9192 86.4744 87.9343C86.4552 87.9517 86.4299 87.9611 86.4038 87.9607H86.2073V84.3179H86.4781V87.3086C86.4781 87.3636 86.4781 87.4186 86.4744 87.4757C86.4744 87.5329 86.4708 87.5907 86.4628 87.6507C86.4846 87.6007 86.5086 87.5514 86.5319 87.5079C86.5588 87.465 86.5814 87.4236 86.6062 87.3864L88.7459 84.4007C88.7584 84.3778 88.7752 84.3574 88.7954 84.3407C88.8166 84.3257 88.8421 84.3178 88.8682 84.3179H89.0618ZM95.3777 84.3179V87.9607H95.1477V84.8557C95.1477 84.81 95.1492 84.7629 95.155 84.7143L93.6994 87.26C93.6732 87.3043 93.6383 87.3271 93.5931 87.3271H93.5509C93.5051 87.3271 93.4709 87.3043 93.4476 87.26L91.9519 84.7093C91.9577 84.7593 91.9592 84.81 91.9592 84.8564V87.9607H91.7241V84.3179H91.9075C91.9277 84.3167 91.948 84.3194 91.9672 84.3257C91.9803 84.33 91.9963 84.345 92.0101 84.3657L93.5022 86.8993C93.5276 86.9471 93.5509 86.9993 93.5706 87.055C93.5815 87.0264 93.5917 87.0007 93.6048 86.9729C93.6157 86.9464 93.6317 86.92 93.6426 86.8971L95.0946 84.3657C95.105 84.3491 95.1195 84.3353 95.1368 84.3257C95.1514 84.3207 95.1732 84.3186 95.198 84.3186L95.3777 84.3179ZM105.635 87.9614H105.46C105.423 87.962 105.387 87.9531 105.355 87.9357C105.323 87.9183 105.296 87.8929 105.277 87.8621L104.116 86.4029C104.07 86.3427 104.013 86.292 103.947 86.2536C103.872 86.2185 103.79 86.2019 103.707 86.205H103.232V87.9607H102.977V86.205H102.507C102.422 86.2017 102.338 86.2184 102.262 86.2536C102.196 86.2914 102.139 86.3422 102.095 86.4029L100.936 87.8621C100.916 87.8903 100.891 87.9145 100.862 87.9336C100.829 87.9521 100.792 87.9617 100.754 87.9614H100.577L101.836 86.3393C101.88 86.2729 101.935 86.215 102 86.1686C102.062 86.1261 102.132 86.0954 102.205 86.0779C102.139 86.0617 102.076 86.0331 102.02 85.9936C101.964 85.9484 101.914 85.8963 101.871 85.8386L100.639 84.3171H100.846C100.876 84.3187 100.906 84.3273 100.931 84.3422C100.957 84.3571 100.979 84.3779 100.995 84.4029L102.135 85.8079C102.167 85.8479 102.198 85.8793 102.23 85.9043C102.261 85.928 102.295 85.9472 102.332 85.9614C102.365 85.9757 102.4 85.985 102.436 85.99C102.472 85.9943 102.515 85.9979 102.556 85.9979H102.977V84.3179H103.233V85.9979H103.654C103.697 85.9979 103.74 85.9943 103.776 85.9907C103.836 85.9834 103.894 85.9633 103.946 85.9317C103.997 85.9001 104.041 85.8578 104.074 85.8079L105.216 84.4043C105.232 84.3778 105.255 84.3556 105.282 84.34C105.307 84.325 105.336 84.3173 105.366 84.3179H105.57L104.339 85.8386C104.292 85.9029 104.245 85.9529 104.192 85.9936C104.137 86.0329 104.074 86.0613 104.007 86.0771C104.085 86.0971 104.153 86.1279 104.213 86.17C104.272 86.2107 104.324 86.2693 104.373 86.3393L105.635 87.9614ZM110.702 84.3179V87.9607H110.432V84.9679C110.432 84.9129 110.435 84.8564 110.435 84.7979C110.438 84.7421 110.443 84.6821 110.45 84.62C110.429 84.6701 110.405 84.719 110.378 84.7664C110.351 84.8093 110.328 84.8521 110.305 84.8879L108.168 87.8771C108.154 87.8995 108.135 87.9189 108.114 87.9343C108.094 87.9515 108.068 87.9609 108.041 87.9607H107.847V84.3179H108.115V87.3086C108.115 87.3636 108.115 87.4186 108.114 87.4757C108.112 87.5329 108.109 87.5907 108.1 87.6507C108.121 87.6007 108.144 87.5514 108.17 87.5079L108.243 87.3864L110.383 84.4007C110.397 84.3784 110.414 84.3582 110.434 84.3407C110.454 84.3259 110.479 84.3179 110.505 84.3179H110.702ZM113.144 84.65C113.283 84.53 113.435 84.4386 113.605 84.3757C113.773 84.3129 113.97 84.2821 114.194 84.2821C114.374 84.2821 114.532 84.3036 114.676 84.3507C114.818 84.3936 114.938 84.4579 115.038 84.5393C115.141 84.62 115.216 84.7164 115.273 84.8264C115.326 84.9364 115.353 85.055 115.353 85.185C115.353 85.2871 115.336 85.3793 115.304 85.465C115.275 85.5521 115.23 85.6293 115.178 85.6979C115.121 85.7662 115.055 85.8259 114.981 85.875C114.905 85.9264 114.823 85.9679 114.737 85.9986C114.852 86.0336 114.954 86.08 115.045 86.1364C115.133 86.1957 115.214 86.2643 115.275 86.3436C115.406 86.4988 115.476 86.6954 115.472 86.8971C115.472 87.0493 115.446 87.1936 115.385 87.3264C115.328 87.46 115.242 87.5798 115.133 87.6771C115.023 87.7771 114.89 87.8557 114.729 87.91C114.569 87.9693 114.386 87.9957 114.178 87.9957C114.045 87.9957 113.92 87.985 113.807 87.9643C113.595 87.9256 113.394 87.8417 113.218 87.7186C113.135 87.6601 113.057 87.5939 112.987 87.5207L113.06 87.4064C113.068 87.3949 113.079 87.3853 113.091 87.3786C113.104 87.3719 113.118 87.3682 113.132 87.3679C113.152 87.3679 113.172 87.3779 113.197 87.3986C113.224 87.42 113.256 87.4436 113.294 87.475C113.335 87.5057 113.379 87.5379 113.433 87.5729C113.486 87.6086 113.548 87.6414 113.62 87.67C113.692 87.7 113.774 87.7257 113.868 87.7471C113.959 87.7679 114.066 87.7779 114.184 87.7779C114.348 87.7779 114.493 87.7571 114.622 87.7136C114.75 87.6707 114.858 87.61 114.946 87.5336C115.034 87.4543 115.101 87.365 115.147 87.26C115.194 87.1543 115.216 87.0379 115.216 86.9136C115.216 86.8021 115.198 86.6957 115.154 86.6007C115.113 86.5036 115.051 86.4163 114.973 86.345C114.893 86.2736 114.794 86.2171 114.679 86.1757C114.551 86.1336 114.418 86.1133 114.283 86.1157H113.797V85.8921H114.294C114.401 85.8921 114.499 85.8771 114.599 85.8457C114.698 85.8157 114.781 85.77 114.856 85.7121C114.93 85.6531 114.991 85.579 115.034 85.495C115.078 85.4042 115.1 85.3043 115.098 85.2036C115.099 85.1069 115.078 85.0112 115.036 84.9235C114.995 84.8358 114.934 84.7583 114.858 84.6964C114.775 84.6305 114.679 84.5811 114.576 84.5507C114.455 84.5166 114.329 84.5 114.203 84.5014C114.095 84.5014 114 84.5071 113.919 84.5229C113.845 84.5368 113.773 84.5559 113.702 84.58C113.644 84.5997 113.589 84.6248 113.536 84.655C113.466 84.6945 113.399 84.7381 113.334 84.7857C113.311 84.8014 113.292 84.81 113.277 84.81C113.25 84.81 113.227 84.7936 113.208 84.7657L113.144 84.6493V84.65ZM120.756 84.3179V87.9607H120.486V86.2143H118.168V87.96H117.899V84.3171H118.168V86.0157H120.486V84.3171L120.756 84.3179ZM124.554 85.9629C124.759 85.9629 124.939 85.9857 125.096 86.0293C125.248 86.0743 125.376 86.1371 125.476 86.2221C125.578 86.3043 125.655 86.405 125.706 86.5243C125.758 86.6414 125.781 86.7757 125.781 86.9257C125.781 87.0843 125.754 87.2286 125.701 87.3557C125.644 87.4829 125.564 87.5914 125.46 87.6814C125.348 87.7759 125.216 87.8463 125.074 87.8879C124.903 87.938 124.725 87.9626 124.546 87.9607H123.417V84.3179H123.689V85.9636L124.554 85.9629ZM124.546 87.7486C124.872 87.7486 125.114 87.6771 125.275 87.5357C125.434 87.3943 125.515 87.1979 125.515 86.9479C125.515 86.6907 125.435 86.4993 125.279 86.3707C125.118 86.24 124.878 86.1743 124.554 86.1743H123.689V87.7479L124.546 87.7486Z" fill="#EA0C0C"/>
</g>
<defs>
<clipPath id="clip0_2001_97">
<rect width="123" height="30" fill="white" transform="translate(34 58)"/>
</clipPath>
</defs>
</svg>
