<svg width="59" height="59" viewBox="0 0 59 59" fill="none" xmlns="http://www.w3.org/2000/svg">
<path d="M29.0018 46C20.1783 46 13 38.5982 13 29.5C13 20.4018 20.1783 13 29.0018 13V14.4578C20.9576 14.4578 14.4137 21.2054 14.4137 29.5C14.4137 37.7946 20.9576 44.5422 29.0018 44.5422C37.0459 44.5422 43.5898 37.7946 43.5898 29.5C43.5898 26.4752 42.7363 23.5924 41.1105 21.1106L29.3994 33.1827C29.1237 33.4669 28.6766 33.4669 28.3992 33.1827L21.9755 26.559L22.9757 25.5276L28.8993 31.6356L40.6987 19.4706C40.8436 19.3212 41.0433 19.2428 41.2465 19.2592C41.4497 19.2738 41.6388 19.3777 41.7608 19.5453C43.8796 22.4299 45 25.8702 45 29.4982C45 38.5964 37.8217 45.9982 28.9982 45.9982L29.0018 46Z" fill="white"/>
</svg>
