<svg width="59" height="59" viewBox="0 0 59 59" fill="none" xmlns="http://www.w3.org/2000/svg">
<path d="M18.4665 30.2343C18.4665 31.965 19.8594 33.3741 21.5703 33.3741C23.2812 33.3741 24.6741 31.965 24.6741 30.2343C24.6741 28.5035 23.2829 27.0944 21.5703 27.0944C19.8577 27.0944 18.4665 28.5018 18.4665 30.2343ZM23.2898 30.2343C23.2898 31.1941 22.5173 31.9755 21.5686 31.9755C20.6198 31.9755 19.8473 31.1941 19.8473 30.2343C19.8473 29.2745 20.6198 28.493 21.5686 28.493C22.5173 28.493 23.2898 29.2745 23.2898 30.2343ZM44.6877 27.8619H43.2827V21.9773C43.2827 21.5909 42.9734 21.278 42.5914 21.278H30.1921V17.7203C31.1703 17.4196 31.8857 16.5 31.8857 15.4126C31.8857 14.0822 30.816 13 29.5009 13C28.1857 13 27.116 14.0822 27.116 15.4126C27.116 16.5 27.8297 17.4196 28.8096 17.7203V21.278H16.4103C16.0284 21.278 15.719 21.5909 15.719 21.9773V27.8619H14.314C13.0386 27.8619 12 28.9511 12 30.2902V34.7587C12 36.0979 13.0386 37.1871 14.314 37.1871V35.7885C13.8008 35.7885 13.3825 35.3269 13.3825 34.7587V30.2902C13.3825 29.722 13.8008 29.2605 14.314 29.2605H15.719V42.3007C15.719 42.6871 16.0284 43 16.4103 43H27.3113V41.6014H17.1016V22.6766H41.8984V41.5997H31.8408V42.9983H42.5897C42.9716 42.9983 43.281 42.6853 43.281 42.299V29.2587H44.686C45.1992 29.2587 45.6175 29.7203 45.6175 30.2885V34.757C45.6175 35.3252 45.1992 35.7867 44.686 35.7867V37.1853C45.9614 37.1853 47 36.0962 47 34.757V30.2885C47 28.9493 45.9614 27.8601 44.686 27.8601L44.6877 27.8619ZM28.4985 15.4143C28.4985 14.8549 28.9478 14.4003 29.5009 14.4003C30.0539 14.4003 30.5032 14.8549 30.5032 15.4143C30.5032 15.9738 30.0539 16.4283 29.5009 16.4283C28.9478 16.4283 28.4985 15.9738 28.4985 15.4143ZM40.1378 30.2343C40.1378 28.5035 38.7449 27.0944 37.034 27.0944C35.3231 27.0944 33.9302 28.5018 33.9302 30.2343C33.9302 31.9668 35.3213 33.3741 37.034 33.3741C38.7466 33.3741 40.1378 31.965 40.1378 30.2343ZM35.3144 30.2343C35.3144 29.2745 36.0869 28.493 37.0357 28.493C37.9845 28.493 38.7569 29.2745 38.7569 30.2343C38.7569 31.1941 37.9845 31.9755 37.0357 31.9755C36.0869 31.9755 35.3144 31.1941 35.3144 30.2343ZM33.6398 36.2937L32.3282 35.8514C32.323 35.8671 31.7821 37.4248 29.4628 37.4248C27.1436 37.4248 26.6995 35.9283 26.6788 35.8654L25.355 36.2692C25.3861 36.3741 26.1396 38.8234 29.4628 38.8234C32.7861 38.8234 33.6053 36.3969 33.6398 36.2937Z" fill="white"/>
</svg>
