<svg width="59" height="59" viewBox="0 0 59 59" fill="none" xmlns="http://www.w3.org/2000/svg">
<path d="M18.6821 25.7405C16.7397 28.7466 16.4933 32.672 18.041 35.985C19.6013 39.3275 22.9556 41.6653 26.7932 42.0839C27.1943 42.1273 27.597 42.149 27.9981 42.149C29.7637 42.149 31.4993 41.7289 32.9822 40.9274L32.3727 39.8406C30.7792 40.701 28.8478 41.0592 26.9321 40.8514C23.532 40.4809 20.5646 38.4174 19.1891 35.4687C17.8183 32.534 18.0331 29.0613 19.7497 26.4056L18.6821 25.7405ZM21.0621 29.1435C20.7146 31.1185 21.2516 33.1975 22.5339 34.8455L23.5383 34.0936C22.4692 32.7185 22.0207 30.9914 22.3081 29.3543L21.0636 29.1435H21.0621ZM45.8168 30.8147L28.8746 14.1814C28.6283 13.9395 28.2271 13.9395 27.9808 14.1814L25.6056 16.5131L17.3808 20.7175C17.2024 20.809 17.0792 20.978 17.0476 21.1733C17.0176 21.3686 17.0824 21.5671 17.2245 21.7066L37.8116 41.9165C37.93 42.0327 38.0911 42.0979 38.2585 42.0979C38.2854 42.0979 38.3122 42.0963 38.3375 42.0932C38.5317 42.0684 38.7023 41.9583 38.8018 41.7925L39.1997 41.1289C39.1997 41.1289 39.2092 41.115 39.2124 41.1088L42.0519 36.385C42.0566 36.3757 42.0629 36.3664 42.0677 36.3571L43.4353 34.0827L45.82 31.6875C46.0616 31.4441 46.06 31.0565 45.8152 30.8162L45.8168 30.8147ZM40.9669 35.7493C40.9622 35.7586 40.9559 35.7679 40.9511 35.7772L40.9274 35.816L40.8564 35.7927V35.7974L40.9243 35.8206L38.1353 40.4592C38.1353 40.4592 38.129 40.4685 38.1259 40.4731L35.8928 38.281L37.3631 36.8377L36.4692 35.9602L34.9989 37.4035L33.0486 35.4889L34.5189 34.0455L33.625 33.1681L32.1547 34.6114L30.2043 32.6968L31.6746 31.2534L30.7808 30.376L29.3105 31.8193L27.3601 29.9047L28.8304 28.4613L27.9365 27.5838L26.4663 29.0272L24.5159 27.1125L25.9862 25.6692L25.0923 24.7917L23.622 26.2351L21.6717 24.3204L23.1419 22.8771L22.2481 21.9996L20.7778 23.443L18.7248 21.4275L25.8614 17.7797L41.7297 33.3991C41.7376 33.4084 41.7471 33.4177 41.755 33.4254L42.1356 33.8006L40.9638 35.7493H40.9669ZM42.9268 32.8192L42.6773 32.5743C42.6694 32.565 42.6615 32.5557 42.652 32.5479L26.8753 17.02L28.4261 15.4976L44.4792 31.2581L42.9252 32.8192H42.9268ZM13 31.4038H14.2634C14.2634 28.5621 15.211 25.7312 16.9339 23.4337L15.9169 22.6988C14.0344 25.2072 12.9984 28.2985 13 31.4038ZM29.7369 37.8299L29.5948 36.5974C28.6093 36.7074 27.5938 36.6005 26.6542 36.2888L26.2499 37.464C27.079 37.7384 27.9587 37.8795 28.8367 37.8795C29.1383 37.8795 29.4384 37.8624 29.7369 37.8299ZM18.6648 41.27L17.793 42.1676C20.0766 44.3071 23.1751 45.6465 26.5168 45.9395C26.9795 45.9798 27.4438 46 27.9065 46C30.7587 46 33.5587 45.2341 35.9149 43.7939L35.2469 42.7412C30.0701 45.907 22.9414 45.2745 18.6663 41.27H18.6648Z" fill="#161616"/>
</svg>
