<svg width="59" height="59" viewBox="0 0 59 59" fill="none" xmlns="http://www.w3.org/2000/svg">
<g clip-path="url(#clip0_2019_342)">
<path d="M43.312 43.2786C44.6877 41.6642 45.5197 39.5735 45.5197 37.2883C45.5197 35.8757 45.2097 34.5195 44.5989 33.2578L43.2938 33.8941C43.8086 34.9558 44.0696 36.0993 44.0696 37.2901C44.0696 39.1736 43.399 40.9025 42.2843 42.2496L39.9134 39.8717C40.4336 39.1445 40.7418 38.2518 40.7418 37.2901C40.7418 34.8413 38.7552 32.8506 36.3155 32.8506C33.8758 32.8506 31.8892 34.8431 31.8892 37.2901C31.8892 39.7371 33.8758 41.7297 36.3155 41.7297C37.2743 41.7297 38.1625 41.4206 38.8893 40.8988L41.2602 43.2768C39.917 44.3948 38.1933 45.0675 36.3155 45.0675C32.0397 45.0675 28.5595 41.5769 28.5595 37.2883C28.5595 36.0975 28.8206 34.9558 29.3353 33.8923C30.093 32.327 31.3708 31.0472 32.9296 30.2872C33.9882 29.7709 35.1283 29.5091 36.3155 29.5091C37.809 29.5091 39.2591 29.9364 40.5098 30.7436L41.2946 29.5219C40.1617 28.7892 38.8893 28.322 37.5625 28.142V16.7487C37.5625 15.7488 37.1746 14.8071 36.4696 14.0981C35.7608 13.3909 34.8238 13 33.8287 13C31.7696 13 30.093 14.6816 30.093 16.7487V20.5101C29.4459 20.0174 28.6611 19.7502 27.8363 19.7502C27.0116 19.7502 26.2087 20.0338 25.5779 20.5174V19.3611C25.5779 18.3612 25.19 17.4213 24.4849 16.7105C23.7798 16.0015 22.8409 15.6124 21.8422 15.6124C19.7831 15.6124 18.1065 17.2941 18.1065 19.3611V22.7371C17.4431 22.2154 16.6329 21.9336 15.7792 21.9336C13.6966 21.9336 12.0018 23.6334 12.0018 25.7205V27.8184H13.4519V25.7205C13.4519 24.4333 14.4959 23.388 15.7792 23.388C16.4009 23.388 16.9864 23.6316 17.425 24.0715C17.6389 24.2861 17.8056 24.5351 17.9234 24.8133C18.0449 25.1023 18.1065 25.4096 18.1065 25.7223C18.1065 26.1241 18.431 26.4495 18.8315 26.4495C19.2321 26.4495 19.5566 26.1241 19.5566 25.7223V19.363C19.5566 18.0976 20.5825 17.0687 21.8422 17.0687C22.453 17.0687 23.0276 17.3068 23.459 17.7395C23.8904 18.174 24.1278 18.7503 24.1278 19.363V23.0898C24.1278 23.4716 24.4233 23.7898 24.8039 23.8152C25.1846 23.8388 25.5199 23.5661 25.5706 23.188C25.7229 22.059 26.6962 21.2082 27.8363 21.2082C28.4472 21.2082 29.0218 21.4464 29.4513 21.8772C29.8084 22.239 30.0332 22.6917 30.1002 23.188C30.1528 23.5661 30.4899 23.8388 30.8669 23.8152C31.2476 23.7898 31.543 23.4716 31.543 23.0898V16.7487C31.543 15.4834 32.5689 14.4544 33.8287 14.4544C34.4377 14.4544 35.0123 14.6925 35.4455 15.1252C35.8769 15.5597 36.1143 16.136 36.1143 16.7469V28.0602C34.7784 28.0893 33.4951 28.3947 32.297 28.9783C30.4464 29.88 28.9311 31.3999 28.0321 33.256C27.4213 34.5177 27.1113 35.8739 27.1113 37.2865C27.1113 39.4299 27.8454 41.4042 29.0725 42.9732C28.7064 43.2095 28.2786 43.3386 27.8363 43.3386C26.6527 43.3386 25.674 42.4478 25.5616 41.2679C25.5253 40.8952 25.2136 40.6098 24.8402 40.6098C24.4668 40.6098 24.155 40.8952 24.1188 41.2679C24.0046 42.4478 23.0276 43.3386 21.844 43.3386C20.5843 43.3386 19.5584 42.3096 19.5584 41.0443V34.6831C19.5584 34.2814 19.2339 33.9559 18.8334 33.9559C18.4328 33.9559 18.1083 34.2814 18.1083 34.6831C18.1083 35.9721 17.0643 37.0192 15.781 37.0192C14.4977 37.0192 13.4537 35.9703 13.4537 34.6831V32.0507H12V34.6831C12 36.7738 13.6947 38.4736 15.7774 38.4736C16.6547 38.4736 17.4631 38.1719 18.1047 37.6665V41.0443C18.1047 43.1113 19.7795 44.793 21.8404 44.793C23.0657 44.793 24.155 44.2094 24.8384 43.2913C25.5199 44.2094 26.611 44.793 27.8363 44.793C28.6429 44.793 29.4223 44.533 30.064 44.0549C31.7062 45.582 33.9048 46.5201 36.3155 46.5201C38.5939 46.5201 40.6783 45.6838 42.2879 44.3057L44.9741 47L46 45.971L43.3138 43.2768L43.312 43.2786ZM38.8658 38.8191L36.8266 36.7738L35.8007 37.8028L37.8399 39.848C37.3922 40.1171 36.8719 40.2753 36.3137 40.2753C34.6715 40.2753 33.3375 38.9354 33.3375 37.2901C33.3375 35.6449 34.6733 34.305 36.3137 34.305C37.954 34.305 39.2899 35.6449 39.2899 37.2901C39.2899 37.8501 39.1322 38.3718 38.864 38.8209L38.8658 38.8191ZM23.2052 31.0926L26.4733 32.707L27.1149 31.4017L23.8469 29.7873L23.2052 31.0926ZM29.2973 29.1964L26.7216 26.6131L25.6957 27.6421L28.2714 30.2254L29.2973 29.1964ZM22.4621 35.7048H26.1035V34.2505H22.4621V35.7048Z" fill="#161616"/>
</g>
<defs>
<clipPath id="clip0_2019_342">
<rect width="59" height="59" fill="white"/>
</clipPath>
</defs>
</svg>
