<svg width="59" height="59" viewBox="0 0 59 59" fill="none" xmlns="http://www.w3.org/2000/svg">
<path d="M22.8568 20.8482C22.614 20.7381 22.33 20.7782 22.1265 20.945L17.8058 24.5313L14.6893 24.5113C14.4995 24.5079 14.3318 24.5796 14.2018 24.7048C14.0718 24.8299 14 25 14 25.1785V33.8307C14 34.1993 14.3062 34.4979 14.6842 34.4979H17.799L22.1213 38.1526C22.2479 38.2594 22.4087 38.3161 22.5695 38.3161C22.6653 38.3161 22.7628 38.2961 22.8534 38.256C23.0963 38.1476 23.2537 37.9108 23.2537 37.6489V21.4537C23.2537 21.1935 23.098 20.9566 22.8568 20.8482ZM21.8853 36.1877L18.738 33.5271V29.2202H17.3696V33.1635H15.3684V25.849L18.0504 25.8674H18.0555C18.218 25.8674 18.3754 25.8107 18.4986 25.7089L21.8853 22.8982V36.1877ZM29.3293 26.4996L27.4289 28.3528L25.5286 26.4996L24.5605 27.4437L26.4608 29.2969L24.5605 31.1501L25.5286 32.0942L27.4289 30.241L29.3293 32.0942L30.2974 31.1501L28.3971 29.2969L30.2974 27.4437L29.3293 26.4996ZM39.965 15.2235C39.7221 15.1151 39.4365 15.1535 39.2329 15.3236L31.9566 21.4087C31.8043 21.5354 31.7171 21.7206 31.7171 21.9158V38.0826C31.7171 38.2777 31.8043 38.4629 31.9566 38.5897L39.2329 44.6747C39.3595 44.7798 39.5186 44.8349 39.6793 44.8349C39.7768 44.8349 39.8743 44.8148 39.965 44.7731C40.2079 44.6647 40.3635 44.4279 40.3635 44.1676V15.829C40.3635 15.5688 40.2079 15.3319 39.965 15.2235ZM38.9934 42.7164L33.0855 37.7756V22.2227L38.9934 17.2819V42.7181V42.7164ZM42.6316 15V45H44V15H42.6316Z" fill="#161616"/>
</svg>
