<svg width="59" height="59" viewBox="0 0 59 59" fill="none" xmlns="http://www.w3.org/2000/svg">
<path d="M33.4263 33.3734L32.3408 32.2879L30.0625 34.5663L31.148 35.6518L33.4263 33.3734ZM42.2329 16H15.7671C15.3433 16 15 16.3433 15 16.7671V30V43.2329C15 43.6567 15.3433 44 15.7671 44H42.2329C42.6567 44 43 43.6567 43 43.2329V30V16.7671C43 16.3433 42.6567 16 42.2329 16ZM16.5342 17.5342H22.2436V29.2329H16.5342V17.5342ZM35.4247 42.4658H16.5323V30.7671H35.4247V42.4658ZM41.4658 42.4658H36.9608V30.7671H41.4658V42.4658ZM41.4658 29.2329H23.7778V17.5342H41.4658V29.2329ZM21.9041 38.5822L20.8186 37.4967L18.5403 39.7751L19.6258 40.8605L21.9041 38.5822ZM40.1386 20.1827L39.0532 19.0973L36.7748 21.3756L37.8603 22.4611L40.1386 20.1827Z" fill="#161616"/>
</svg>
