<svg width="59" height="59" viewBox="0 0 59 59" fill="none" xmlns="http://www.w3.org/2000/svg">
<path d="M12.4611 34.748H46.5407V33.3895H12.4611V34.748ZM12.4611 39H46.5407V37.6415H12.4611V39ZM46.8626 29.7844L39.6405 20.27C39.5121 20.1002 39.3083 20 39.0926 20H28.5848V21.3585H38.7519L44.9432 29.5144H14.0585L20.2499 21.3585H23.337V20H19.9074C19.6917 20 19.4896 20.1002 19.3595 20.27L12.1375 29.7844C11.9816 29.9899 11.956 30.265 12.0724 30.4959C12.1888 30.7269 12.4251 30.8712 12.6853 30.8712H46.3147C46.5749 30.8712 46.8112 30.7252 46.9276 30.4959C47.044 30.265 47.0184 29.9899 46.8626 29.7844ZM30.0334 25.2132L27.9993 27.2305L28.9684 28.1916L31.0024 26.1743L30.0334 25.2132ZM20.4981 24.7971L21.4672 25.7582L23.5013 23.7409L22.5322 22.7798L20.4981 24.7971ZM37.5362 22.7798L35.5021 24.7971L36.4712 25.7582L38.5053 23.7409L37.5362 22.7798Z" fill="#161616"/>
</svg>
