<svg width="59" height="59" viewBox="0 0 59 59" fill="none" xmlns="http://www.w3.org/2000/svg">
<path d="M45.774 42.7496L36.0614 33.0637C35.7575 32.7607 35.2627 32.7607 34.9589 33.0637L34.0725 33.9476L26.939 26.8338L25.8365 27.9333L32.97 35.0471L32.0272 35.9873C31.7233 36.2904 31.7233 36.7819 32.0272 37.0869L35.216 40.2669L36.3185 39.1674L33.681 36.5371L35.5082 34.7149L44.1183 43.3013L42.291 45.1234L39.8346 42.6738L38.7321 43.7733L41.7398 46.7727C41.8917 46.9242 42.0904 47 42.291 47C42.4917 47 42.6904 46.9242 42.8423 46.7727L45.7721 43.851C46.076 43.548 46.076 43.0565 45.7721 42.7515L45.774 42.7496ZM21.4769 40.1989L15.8239 16.8526L39.1158 22.6105L32.07 29.637L33.1726 30.7365L41.1943 22.7368C41.393 22.5387 41.469 22.2492 41.395 21.9792C41.319 21.7092 41.1047 21.5013 40.832 21.4333L31.4603 19.1177L33.3966 17.1868C33.9712 16.6137 34.2888 15.8503 34.2888 15.0382C34.2888 14.2262 33.9712 13.4647 33.3966 12.8917C32.82 12.3166 32.0544 12 31.2421 12C30.4298 12 29.6623 12.3166 29.0877 12.8917L24.5547 17.4121L14.9531 15.0363C14.6882 14.9703 14.4096 15.048 14.2168 15.2403C14.0239 15.4326 13.9441 15.7104 14.0084 15.9746L16.3401 25.6022L12.8922 29.0406C12.3175 29.6136 12 30.3771 12 31.1891C12 32.0011 12.3156 32.7626 12.8922 33.3396C13.274 33.7184 13.7318 33.9787 14.2168 34.1147L13.424 34.9053C12.8474 35.4803 12.5298 36.2438 12.5298 37.0538C12.5298 37.8639 12.8474 38.6312 13.424 39.2024C13.9986 39.7754 14.7642 40.0921 15.5784 40.0921C16.3927 40.0921 17.1563 39.7754 17.7329 39.2024L19.266 37.6735L20.2925 41.9104C20.3588 42.1843 20.5672 42.3999 20.8399 42.4757C20.91 42.4951 20.9802 42.5048 21.0503 42.5048C21.2548 42.5048 21.4535 42.4252 21.6016 42.2775L29.5513 34.3497L28.4487 33.2502L21.4808 40.1989H21.4769ZM30.1863 13.9873C30.4668 13.7056 30.8408 13.5521 31.2382 13.5521C31.6356 13.5521 32.0096 13.7076 32.2921 13.9873C32.5745 14.267 32.7284 14.64 32.7284 15.0363C32.7284 15.4326 32.5745 15.8056 32.2921 16.0873L29.6935 18.6806L26.3196 17.8473L30.1883 13.9892L30.1863 13.9873ZM16.6284 38.1028C16.3479 38.3826 15.9739 38.538 15.5765 38.538C15.1791 38.538 14.8051 38.3845 14.5226 38.1028C14.2421 37.8231 14.0863 37.4521 14.0863 37.0538C14.0863 36.6556 14.2421 36.2846 14.5246 36.0029L17.1154 33.4173C17.4134 33.1201 17.4193 32.6383 17.129 32.3333C16.8388 32.0283 16.3557 32.0089 16.0421 32.2925C15.4538 32.8209 14.5538 32.7976 13.9928 32.2401C13.7103 31.9584 13.5564 31.5834 13.5564 31.1872C13.5564 30.7909 13.7103 30.4179 13.9928 30.1381L16.7686 27.3699L18.8355 35.9038L16.6303 38.1028H16.6284Z" fill="#161616"/>
</svg>
