<svg width="59" height="59" viewBox="0 0 59 59" fill="none" xmlns="http://www.w3.org/2000/svg">
<path d="M39.4381 26.1276C41.1206 25.9958 41.7628 24.0886 41.9877 23.422L40.7566 23.033C40.1693 24.7787 39.5529 24.9308 39.0821 24.8697C38.5321 24.7975 38.1374 24.4682 37.8591 24.0933C37.4304 23.4126 37.1246 22.3837 37.1246 21.1509C37.1246 18.8923 38.1519 17.3176 39.0724 17.3176C39.1501 17.3176 39.2245 17.3019 39.2925 17.2784C40.1272 17.4635 40.6449 18.9378 40.7517 19.2672L41.9877 18.8939C41.3131 16.7922 40.0625 15.7319 38.6405 16.0581C38.634 16.0581 38.6275 16.0613 38.6227 16.0629H17.242C17.1854 16.0629 17.1304 16.0644 17.0803 16.0691C15.3233 16.1977 14 18.3826 14 21.1509C14 23.5961 15.0338 25.5865 16.4817 26.104V28.3375H17.7759V26.2374H23.9364V31.0839C23.9364 31.7332 23.3896 32.2633 22.7182 32.2633C22.0469 32.2633 21.5017 31.7348 21.5017 31.0839C21.5017 30.7372 21.2121 30.4565 20.8546 30.4565C20.497 30.4565 20.2074 30.7372 20.2074 31.0839V34.4356C20.2074 35.085 19.6606 35.6151 18.9892 35.6151C18.3179 35.6151 17.7727 35.0865 17.7727 34.4356V31.3615H16.4784V34.4356C16.4784 35.7782 17.6044 36.8698 18.9892 36.8698C20.3741 36.8698 21.5017 35.7782 21.5017 34.4356V33.2122C21.8624 33.4067 22.2766 33.5181 22.7182 33.5181C24.1031 33.5181 25.2307 32.4264 25.2307 31.0839V26.2374H39.0741C39.2099 26.2374 39.3345 26.1966 39.4381 26.1276ZM17.242 24.9826C17.2226 24.9826 17.2016 24.9826 17.1773 24.9795C16.2681 24.9136 15.2942 23.3577 15.2942 21.1493C15.2942 18.9409 16.2681 17.3851 17.1838 17.3192C17.2032 17.3176 17.2242 17.316 17.2437 17.316H36.8593C36.2365 18.2006 35.9808 19.3064 35.8838 19.9118C35.6718 21.2168 35.7754 22.5013 36.1831 23.629C36.3594 24.1168 36.5875 24.5387 36.8609 24.8932C36.882 24.923 36.9014 24.9544 36.9224 24.9826H17.2453H17.242ZM19.0135 38.352C17.7258 38.352 16.6774 39.3684 16.6774 40.6169C16.6774 41.8653 17.7258 42.8817 19.0135 42.8817C20.3013 42.8817 21.3496 41.8653 21.3496 40.6169C21.3496 39.3684 20.3013 38.352 19.0135 38.352ZM19.0135 41.6254C18.4392 41.6254 17.9717 41.1721 17.9717 40.6153C17.9717 40.0585 18.4392 39.6052 19.0135 39.6052C19.5878 39.6052 20.0554 40.0585 20.0554 40.6153C20.0554 41.1721 19.5878 41.6254 19.0135 41.6254ZM44.3529 20.5219H38.9899V21.7767H43.7058V28.3751H28.8416C28.484 28.3751 28.1944 28.6559 28.1944 29.0025V32.3088H27.1785C26.8209 32.3088 26.5314 32.5896 26.5314 32.9362V34.7289H27.8256V33.5636H29.8365V42.7452H27.8256V37.4972H26.5314V43.3726C26.5314 43.7192 26.8209 44 27.1785 44H30.4836C30.8411 44 31.1307 43.7192 31.1307 43.3726V32.9362C31.1307 32.5896 30.8411 32.3088 30.4836 32.3088H29.4887V29.6299H44.3529C44.7104 29.6299 45 29.3492 45 29.0025V21.1493C45 20.8027 44.7104 20.5219 44.3529 20.5219Z" fill="#161616"/>
</svg>
