<svg width="59" height="59" viewBox="0 0 59 59" fill="none" xmlns="http://www.w3.org/2000/svg">
<path d="M38.9997 22.9867L38.5105 21.5241L33.5512 23.1291L34.0405 24.5917L38.9997 22.9867ZM31.4552 23.9008C31.2555 23.7546 30.9992 23.7103 30.7624 23.7815L26.9852 24.8977H18.374V23.6391C18.374 23.0829 18.8339 22.6307 19.3995 22.6307H21.5034V21.0911H19.3995C17.9709 21.0911 16.8083 22.2342 16.8083 23.6391V24.8977H15.7828C15.3503 24.8977 15 25.2422 15 25.6675V42.543C15 42.9683 15.3503 43.3128 15.7828 43.3128H16.8827V46.0974H18.4484V43.3128H19.5483C19.9808 43.3128 20.3311 42.9683 20.3311 42.543V31.6506H22.2021L24.7893 42.7162L26.3159 42.3717L23.8108 31.6525H26.9832L30.7545 32.8322C30.8328 32.8572 30.913 32.8688 30.9913 32.8688C31.1557 32.8688 31.3182 32.8187 31.4532 32.7206C31.6548 32.5762 31.7742 32.3453 31.7742 32.099V24.5205C31.7742 24.278 31.6567 24.0471 31.4591 23.9027L31.4552 23.9008ZM18.7635 41.7732H16.5637V31.6506H18.7635V41.7732ZM30.2046 31.0444L27.8835 30.3189V28.4849H26.3178V30.1129H16.5657V26.4392H27.1006C27.177 26.4392 27.2533 26.4276 27.3257 26.4064L30.2046 25.5558V31.0463V31.0444ZM33.5512 33.4211L38.5105 35.0261L38.9997 33.5635L34.0405 31.9585L33.5512 33.4211ZM41.4343 12V47H43V12H41.4343ZM34.1481 29.0449H39.1074V27.5053H34.1481V29.0449Z" fill="#161616"/>
</svg>
