<svg width="327" height="260" viewBox="0 0 327 260" fill="none" xmlns="http://www.w3.org/2000/svg">
<rect opacity="0.5" width="327" height="260" fill="white"/>
<path d="M92.7 82V76.3075L94.2204 76.289C95.213 74.0098 95.6568 71.5982 95.9186 69.1226L96.06 63.6463H106.28V76.3089H108.101L107.82 82H105.72V78.7276H95.22L94.94 82H92.7ZM103.76 66.065H98.44C98.538 69.5437 98.4386 73.1376 96.9 76.3089H103.76V66.065Z" fill="#EA0C0C"/>
<path d="M22 66.3496V63.3618C23.2684 50.7831 37.351 43.9823 47.6648 51.4362C57.8442 58.7933 56.1362 74.9374 44.6758 79.9313C34.6378 84.3063 22.9296 77.4415 22 66.3496ZM36.532 49.6037C29.826 50.2069 24.1616 56.0346 23.2782 62.74C21.5296 76.0016 36.406 85.1756 47.0488 77.2224C59.422 67.973 52.0538 48.2093 36.532 49.6037Z" fill="#EA0C0C"/>
<path d="M190 78.7276H187.48V67.9146L180.06 78.7276H177.54V63.6463H180.06V74.4593L180.596 73.9372L187.508 63.6762L190 63.6463V78.7276Z" fill="#EA0C0C"/>
<path d="M103.48 47C103.978 48.4043 105.782 48.4043 106.28 47H106.56C107.078 47.1565 106.545 47.9106 106.354 48.1425C105.597 49.0687 104.053 49.0303 103.339 48.0685C103.168 47.838 102.709 47.1352 103.2 47H103.48Z" fill="#EA0C0C"/>
<path d="M150.03 63.6463C151.749 63.8242 153.803 64.9211 154.02 66.8476C154.224 68.663 153.666 69.9833 152.06 70.8313C154.17 71.7846 155.255 73.1376 154.796 75.6047C154.467 77.3675 152.094 78.7291 150.45 78.7291H142.54V63.6478C144.938 63.8285 147.672 63.4045 150.03 63.6478V63.6463ZM149.89 66.065C148.542 65.8346 146.614 66.2358 145.2 66.065V70.0488H149.19C149.513 70.0488 150.356 69.7472 150.65 69.5409C152.106 68.5122 151.598 66.3567 149.89 66.065ZM145.2 76.3089H150.59C150.86 76.3089 151.795 75.7228 151.984 75.4496C152.823 74.2289 152.148 72.7691 150.808 72.3878C150.688 72.3537 149.809 72.1829 149.75 72.1829H145.2V76.3089Z" fill="#EA0C0C"/>
<path d="M131.172 63.4059C141.776 62.6917 142.205 78.8244 131.834 79.0207C121.856 79.2085 121.175 64.0789 131.172 63.4059ZM131.312 65.8203C124.878 66.2813 125.384 76.6063 131.69 76.6035C138.546 76.6006 138.2 65.3266 131.312 65.8203Z" fill="#EA0C0C"/>
<path d="M91.16 63.6463V66.065H82.76V69.9065H90.18V72.3252H82.76V76.3089H91.3V78.7276H80.24V63.6463H91.16Z" fill="#EA0C0C"/>
<path d="M67.5 63.6463V71.187L74.57 63.6463H77.72L71.5852 70.1185L78 78.7276H74.85L69.88 72.1033C69.7176 71.9724 69.6504 72.0876 69.5258 72.1744C68.7922 72.6866 68.2196 73.812 67.5 74.3882V78.7276H64.84V63.6463H67.5Z" fill="#EA0C0C"/>
<path d="M113.14 73.8902V78.7276H110.48V63.6463H117.13C122.076 63.6463 123.923 70.8313 119.331 73.139C118.916 73.3467 117.375 73.8902 116.99 73.8902H113.14ZM113.14 71.4715H116.99C117.131 71.4715 117.911 71.1329 118.088 71.0219C119.891 69.8909 119.677 67.1278 117.721 66.3183C117.613 66.2742 116.896 66.065 116.85 66.065H113.14V71.4715Z" fill="#EA0C0C"/>
<path d="M160.46 63.6463V69.0528H164.59C167.162 69.0528 169.433 71.1785 169.433 73.8191C169.433 76.4598 167.236 78.7276 164.73 78.7276H157.8V63.6463H160.46ZM160.46 76.3089H164.87C164.932 76.3089 165.706 75.9404 165.828 75.8593C167.05 75.0455 167.17 72.9228 166.025 72.0051C165.66 71.712 164.604 71.3293 164.17 71.3293H160.46V76.3089Z" fill="#EA0C0C"/>
<path d="M173.76 63.6463H171.1V78.7276H173.76V63.6463Z" fill="#EA0C0C"/>
<path d="M86.75 49.9878C88.2046 50.1955 89.3106 51.7136 88.2228 53.0098C87.9638 53.3185 87.4416 53.2758 87.52 53.6856C89.3596 53.9858 89.6256 56.3518 87.8966 57.1287C87.7888 57.177 87.212 57.3862 87.17 57.3862H82.9V49.9878C84.0984 50.1102 85.5922 49.8213 86.75 49.9878ZM83.6 53.2602H86.89C87.3408 53.2602 87.947 52.3994 87.9484 51.9085C87.9484 51.5045 87.366 50.6992 87.03 50.6992H83.6V53.2602ZM83.6 56.8171H86.75C87.3506 56.8171 88.2676 56.0815 88.3306 55.4313C88.3852 54.8636 87.6922 53.9715 87.17 53.9715H83.6V56.8171Z" fill="#EA0C0C"/>
<path d="M74.409 50.8913C78.28 47.0726 83.4418 53.6927 79.3286 56.8156C75.4548 59.7579 71.0966 54.1565 74.409 50.8913ZM76.2822 50.5896C75.6872 50.7006 74.8416 51.422 74.5224 51.9313C72.967 54.4154 75.354 57.9539 78.1918 56.6563C81.4104 55.1852 80.114 49.8711 76.2822 50.5896Z" fill="#EA0C0C"/>
<path d="M102.36 49.9878V56.3902L107.289 50.0191L108.1 49.9878V57.3862H107.4V51.126C107.099 51.089 106.888 51.5472 106.706 51.772C105.275 53.5461 103.971 55.4427 102.569 57.2411L101.66 57.3848V49.9878H102.36Z" fill="#EA0C0C"/>
<path d="M65.54 49.9878V53.2602H70.44V49.9878H71.14V57.3862H70.44V53.9715H65.54V57.3862H64.84V49.9878H65.54Z" fill="#EA0C0C"/>
<path d="M182.14 59.2571C182.657 61.2205 185.041 61.1081 185.612 59.2258L187.176 59.5872C186.668 62.962 182.082 63.635 180.778 60.428C180.71 60.2587 180.403 59.5616 180.614 59.4449L182.142 59.2571H182.14Z" fill="#EA0C0C"/>
<path d="M91.86 49.9878V52.8333H94.73C95.052 52.8333 96.0866 53.3455 96.3442 53.6116C97.2724 54.5705 96.9602 56.3006 95.878 56.9892C95.7702 57.0575 95.0562 57.3862 95.0086 57.3862H91.1586V49.9878H91.86ZM91.86 53.5447V56.6037L92.07 56.8171H94.45C94.5648 56.8171 95.4118 56.4713 95.5504 56.3703C96.1188 55.9492 96.2378 54.9035 95.9578 54.2902C95.8794 54.1195 95.1052 53.5447 95.01 53.5447H91.86Z" fill="#EA0C0C"/>
<path d="M99 49.9878H98.3V57.3862H99V49.9878Z" fill="#EA0C0C"/>
<path d="M32.5 59.5203V63.9309H37.54V59.5203H39.36V64.7846L44.33 59.5203H46.5L42.3154 64.022L46.78 70.1911H44.61L40.97 65.3565L39.36 66.9898V70.1911H37.54V65.6382H32.5V70.1911H30.68V59.5203H32.5Z" fill="#EA0C0C"/>
</svg>
