<svg width="327" height="260" viewBox="0 0 327 260" fill="none" xmlns="http://www.w3.org/2000/svg">
<rect opacity="0.5" width="327" height="260" fill="white"/>
<path d="M22.3443 80.0303H125.661V81H22.3443V80.0303Z" fill="#EA0C0C"/>
<path d="M126 68.8092L123.712 66.4666L89.6128 66.4927L58.2493 35L56.0185 35.4396L87.7388 67.3009H123.539L126 69.7737V68.8092Z" fill="#EA0C0C"/>
<path fill-rule="evenodd" clip-rule="evenodd" d="M121.841 65.5969L122.128 64.3011L113.481 55.6153L83.1787 55.6257L81.1046 56.5454L112.832 56.5506L121.841 65.5969Z" fill="#EA0C0C"/>
<path fill-rule="evenodd" clip-rule="evenodd" d="M90.6986 64.7751L120.41 64.774L121.235 65.5969H90.0982L81.4748 56.936H82.8935L90.6986 64.7751Z" fill="#EA0C0C"/>
<path fill-rule="evenodd" clip-rule="evenodd" d="M55.9428 40.8548L57.1582 42.0724L30.7883 68.5571H28.3584L55.9428 40.8548Z" fill="#EA0C0C"/>
<path fill-rule="evenodd" clip-rule="evenodd" d="M22 69.5987L55.9894 35.4448L56.7019 36.1603L23.4073 69.5987H22Z" fill="#EA0C0C"/>
<path fill-rule="evenodd" clip-rule="evenodd" d="M82.8935 67.9238L55.9428 40.8548L56.6376 40.1549L84.2749 67.9238H82.8935Z" fill="#EA0C0C"/>
<path d="M28.0307 76.5378H27.1771C27.1668 76.8399 27.1066 77.1534 26.9459 77.3648C26.8349 77.5054 26.6544 77.6169 26.3838 77.6169C26.1027 77.6169 25.9119 77.5054 25.7916 77.345C25.5406 77.0024 25.5002 76.4274 25.5002 74.7223C25.5002 73.0172 25.5406 72.4422 25.7916 72.0996C25.9119 71.9381 26.1027 71.8267 26.3838 71.8267C26.6544 71.8267 26.8359 71.9371 26.9459 72.0787C27.117 72.2902 27.1668 72.5933 27.1771 72.8964H28.0307C28.0203 72.311 27.8502 71.7965 27.5183 71.4736C27.2373 71.2017 26.8857 71.0496 26.3838 71.0496C25.8217 71.0496 25.4296 71.2611 25.1579 71.5746C24.6861 72.1194 24.6352 72.7349 24.6352 74.7223C24.6352 76.7097 24.6861 77.3252 25.1579 77.87C25.4286 78.1825 25.8206 78.395 26.3838 78.395C26.8556 78.395 27.2072 78.2533 27.4883 78.0012C27.8398 77.6783 28.0203 77.144 28.0307 76.5388V76.5378ZM31.788 71.9069V71.1298H28.5233V71.9069H29.7284V78.3127H30.5923V71.9069H31.788ZM35.9467 73.2287C35.9467 71.635 35.3338 71.1298 34.249 71.1298H32.6415V78.3127H33.5054V75.3171H34.249C35.3141 75.3171 35.9467 74.8025 35.9467 73.2287ZM35.0828 73.2287C35.0828 74.1869 34.8018 74.54 34.2189 74.54H33.5054V71.9069H34.2189C34.8018 71.9069 35.0828 72.26 35.0828 73.2287ZM40.3367 74.7223C40.3367 72.7349 40.2766 72.0891 39.814 71.5746C39.533 71.2621 39.1513 71.0496 38.5892 71.0496C38.0261 71.0496 37.6444 71.2611 37.3634 71.5746C36.9008 72.0891 36.8407 72.7349 36.8407 74.7223C36.8407 76.7097 36.9008 77.3555 37.3634 77.87C37.6444 78.1825 38.0261 78.395 38.5892 78.395C39.1513 78.395 39.533 78.1835 39.814 77.87C40.2766 77.3555 40.3367 76.7097 40.3367 74.7223ZM39.4728 74.7223C39.4728 76.4274 39.423 77.0024 39.1721 77.345C39.0518 77.5065 38.8703 77.6169 38.5892 77.6169C38.3082 77.6169 38.1174 77.5054 37.997 77.345C37.7461 77.0024 37.7056 76.4274 37.7056 74.7223C37.7056 73.0172 37.7461 72.4422 37.997 72.0996C38.1174 71.9381 38.3082 71.8267 38.5892 71.8267C38.8703 71.8267 39.0507 71.9371 39.1721 72.0996C39.423 72.4422 39.4728 73.0172 39.4728 74.7223ZM44.8667 78.3137V71.1309H44.0733L42.3155 76.1243V71.1309H41.4516V78.3137H42.2553L44.0028 73.3297V78.3137H44.8667ZM48.985 71.9079V71.1309H45.7202V71.9079H46.9253V78.3137H47.7892V71.9079H48.985ZM52.6013 78.3137V77.5367H50.7024V75.0952H52.3399V74.3182H50.7024V71.9069H52.6013V71.1298H49.8385V78.3127H52.6013V78.3137ZM57.2215 78.3137V71.1309H54.2482V74.9546C54.2482 77.3961 53.7659 77.5377 53.2443 77.5377H53.1541V78.3148H53.405C54.3094 78.3148 55.0727 78.0325 55.0727 75.0869V71.909H56.3587V78.3148H57.2225L57.2215 78.3137ZM61.8127 76.216C61.8127 74.6317 61.1998 74.1275 60.115 74.1275H59.3714V71.1309H58.5075V78.3137H60.115C61.1894 78.3137 61.8127 77.7992 61.8127 76.216ZM60.9488 76.216C60.9488 77.1846 60.6677 77.5377 60.1046 77.5377H59.3714V74.9046H60.1046C60.6677 74.9046 60.9488 75.2577 60.9488 76.216ZM66.1923 78.3137V71.1309H65.3284V74.2682H63.7417V71.1309H62.8778V78.3137H63.7417V75.0556H65.3284V78.3137H66.1923ZM71.0438 78.3137L69.3865 71.1309H68.5527L66.8851 78.3137H67.7894L68.1306 76.619H69.7879L70.1291 78.3137H71.0438ZM69.6271 75.842H68.2914L68.9644 72.5329L69.6271 75.842ZM75.022 78.3137V71.1309H73.4052C72.3204 71.1309 71.7169 71.6048 71.7169 73.1787C71.7169 74.1776 71.9585 74.7629 72.5807 75.0556L71.4856 78.3137H72.4003L73.3845 75.2264H74.1582V78.3137H75.022ZM74.1582 74.4598H73.3949C72.7322 74.4598 72.5807 73.9453 72.5807 73.1787C72.5807 72.4225 72.7311 71.9079 73.3949 71.9079H74.1582V74.4598ZM81.5007 78.3137V71.1309H78.1862V78.3137H79.0501V71.9079H80.6368V78.3137H81.5007ZM85.5485 78.3137V77.5367H83.6506V75.0952H85.2882V74.3182H83.6506V71.9069H85.5485V71.1298H82.7857V78.3127H85.5485V78.3137ZM89.9084 73.2297C89.9084 71.6361 89.2955 71.1309 88.2107 71.1309H86.6032V78.3137H87.4671V75.3181H88.2107C89.2758 75.3181 89.9084 74.8035 89.9084 73.2297ZM89.0445 73.2297C89.0445 74.188 88.7634 74.5411 88.1806 74.5411H87.4671V71.9079H88.1806C88.7634 71.9079 89.0445 72.261 89.0445 73.2297ZM94.1978 76.5388H93.3442C93.3339 76.8409 93.2737 77.1544 93.113 77.3659C93.003 77.5065 92.8216 77.6179 92.5509 77.6179C92.2698 77.6179 92.079 77.5065 91.9587 77.3461C91.7077 77.0034 91.6673 76.4284 91.6673 74.7233C91.6673 73.0183 91.7077 72.4433 91.9587 72.1006C92.079 71.9392 92.2698 71.8277 92.5509 71.8277C92.8216 71.8277 93.003 71.9381 93.113 72.0798C93.2841 72.2912 93.3339 72.5943 93.3442 72.8974H94.1978C94.1874 72.312 94.0173 71.7975 93.6854 71.4746C93.4044 71.2027 93.0528 71.0507 92.5509 71.0507C91.9888 71.0507 91.5968 71.2621 91.325 71.5756C90.8532 72.1204 90.8023 72.736 90.8023 74.7233C90.8023 76.7107 90.8532 77.3263 91.325 77.871C91.5957 78.1835 91.9877 78.396 92.5509 78.396C93.0228 78.396 93.3743 78.2544 93.6554 78.0023C94.0069 77.6794 94.1874 77.1451 94.1978 76.5399V76.5388ZM98.5369 78.3148V71.1319H95.2224V78.3148H96.0863V71.909H97.673V78.3148H98.5369ZM102.585 78.3148V77.5377H100.686V75.0962H102.323V74.3192H100.686V71.9079H102.585V71.1309H99.8219V78.3137H102.585V78.3148ZM104.503 78.3148V71.1319H103.639V78.3148H104.503ZM107.436 78.3148L105.417 74.5317L107.256 71.1319H106.321L104.523 74.5723L106.461 78.3148H107.436ZM110.992 71.909V71.1319H107.728V71.909H108.933V78.3148H109.797V71.909H110.992ZM115.261 78.3148V71.1319H114.468L112.71 76.1253V71.1319H111.846V78.3148H112.65L114.397 73.3307V78.3148H115.261ZM119.861 76.2972C119.861 75.6816 119.801 75.1973 119.43 74.8348C119.31 74.7244 119.149 74.6234 118.988 74.5723C119.129 74.5119 119.269 74.4202 119.39 74.2994C119.741 73.9567 119.812 73.5328 119.812 73.0182C119.812 72.2412 119.701 71.8881 119.39 71.5652C119.098 71.2621 118.717 71.1309 118.084 71.1309H116.547V78.3137H118.084C118.717 78.3137 119.109 78.1825 119.4 77.8804C119.721 77.5471 119.861 77.1638 119.861 76.2962V76.2972ZM118.998 76.2472C118.998 77.2357 118.686 77.5388 118.033 77.5388H117.411V74.9556H118.033C118.676 74.9556 118.998 75.3191 118.998 76.2472ZM118.947 73.0589C118.947 73.8765 118.655 74.2088 118.042 74.2088H117.41V71.909H118.042C118.665 71.909 118.947 72.1912 118.947 73.0589ZM124.622 78.3148L122.964 71.1319H122.131L120.463 78.3148H121.367L121.709 76.6201H123.366L123.707 78.3148H124.622ZM123.205 75.8431H121.869L122.542 72.5339L123.205 75.8431Z" fill="#EA0C0C"/>
<path d="M50.8548 66.4135H48.8128V56.5954H55.9034V58.3317H50.8548V66.4135ZM59.3258 66.4135H57.2837V56.5954H59.3258V60.5878L63.0562 56.5954H65.6997L61.7111 60.616L65.9289 66.4135H63.3009L60.2768 62.1065L59.3258 63.0908V66.4135Z" fill="#EA0C0C"/>
</svg>
