<svg width="59" height="59" viewBox="0 0 59 59" fill="none" xmlns="http://www.w3.org/2000/svg">
<path d="M14 44.24H15.5424V24.9905H14V44.24ZM43.2288 23.7638H34.8997V14.7619C34.8997 14.341 34.5546 14 34.1285 14H30.0315C29.829 14 29.6343 14.0781 29.4897 14.219L18.7487 24.6838C18.6022 24.8267 18.5193 25.0229 18.5193 25.2267V40.0762H20.0617V25.5448L30.3477 15.5238H33.3573V24.5257C33.3573 24.9467 33.7024 25.2876 34.1285 25.2876H42.4576V29.299H37.6761V30.8229H42.4576V34.6076H37.6761V36.1314H42.4576V37.7448L36.6542 43.4762H18.8644V45H36.9743C37.1787 45 37.3753 44.92 37.5199 44.7771L43.7744 38.5981C43.919 38.4552 44 38.261 44 38.059V24.5238C44 24.1029 43.6549 23.7619 43.2288 23.7619V23.7638Z" fill="white"/>
</svg>
