<svg width="59" height="59" viewBox="0 0 59 59" fill="none" xmlns="http://www.w3.org/2000/svg">
<path d="M18.447 30.8404H40.4652V40.3778H41.8996V30.1544C41.8996 29.7753 41.5786 29.4683 41.1824 29.4683H17.7298C17.3335 29.4683 17.0125 29.7753 17.0125 30.1544V40.3778H18.447V30.8404ZM22.5637 23.9647C22.5637 20.3288 25.6549 17.372 29.4561 17.372C33.2573 17.372 36.3484 20.3288 36.3484 23.9647V26.9832H37.7828V23.9647C37.7828 19.5725 34.048 16 29.4561 16C24.8642 16 21.1293 19.5725 21.1293 23.9647V26.9832H22.5637V23.9647ZM17 42.628V44H42V42.628H17Z" fill="white"/>
</svg>
