<svg width="59" height="59" viewBox="0 0 59 59" fill="none" xmlns="http://www.w3.org/2000/svg">
<path d="M42.0838 28.21C42.6613 29.6571 42.9519 31.185 42.9519 32.7489C42.9519 39.8133 36.9163 45.5619 29.4991 45.5619C22.0819 45.5619 16.0462 39.8151 16.0462 32.7489C16.0462 31.0646 16.384 29.4306 17.0483 27.8883L15.6517 27.3418C14.9119 29.0567 14.5363 30.8758 14.5363 32.7489C14.5363 40.606 21.2495 47 29.5009 47C37.7523 47 44.4637 40.606 44.4637 32.7489C44.4637 31.0088 44.1391 29.3101 43.4974 27.6995L42.0857 28.21H42.0838ZM45.6697 22.3464L29.9256 12.1254C29.6689 11.9582 29.3311 11.9582 29.0744 12.1254L13.3303 22.3464C13.1208 22.483 12.9981 22.7077 13 22.9485C13.0019 23.1894 13.1302 23.4123 13.3416 23.5435L29.0876 33.3457C29.2141 33.423 29.3575 33.4625 29.5009 33.4625C29.6444 33.4625 29.7878 33.423 29.9143 33.3457L37.1956 28.8122V32.8729C35.8952 33.1929 34.9308 34.3164 34.9308 35.6538V37.5214H36.4407V36.3728H37.1956V37.5214H38.7054V36.3728H39.4604V37.5214H40.9702V35.6538C40.9702 34.3164 40.0058 33.1929 38.7054 32.8729V27.8721L45.6584 23.5435C45.8697 23.4123 45.9981 23.1894 46 22.9485C46.0019 22.7077 45.8792 22.483 45.6697 22.3482V22.3464ZM39.2565 34.9329H36.6426C36.9049 34.5033 37.3919 34.2139 37.9505 34.2139C38.5092 34.2139 38.9961 34.5033 39.2584 34.9329H39.2565ZM37.9713 26.6084L29.9841 21.0916L29.0971 22.2565L36.6181 27.4514L29.4991 31.8825L15.1157 22.9288L29.5009 13.5904L43.8862 22.9288L37.9732 26.6102L37.9713 26.6084ZM34.0607 39.612L32.632 39.15C32.6075 39.2165 31.9884 40.7768 29.5009 40.7768C27.0134 40.7768 26.4831 39.2399 26.4605 39.1734L25.0148 39.5886C25.0487 39.6965 25.8716 42.2131 29.5009 42.2131C33.1303 42.2131 34.0249 39.7181 34.0626 39.612H34.0607Z" fill="white"/>
</svg>
