<svg width="59" height="59" viewBox="0 0 59 59" fill="none" xmlns="http://www.w3.org/2000/svg">
<path d="M36.848 39.2964L36.8476 37.9534L33.1081 37.9521L33.1085 39.2951L36.848 39.2964ZM40.9691 41.3182L40.9654 30.3772C40.9749 30.3322 40.9808 30.2859 40.9796 30.2372L40.9759 19.1729C40.9759 18.9949 40.9046 18.8241 40.7788 18.6983C40.653 18.5725 40.4821 18.5012 40.3042 18.5011L33.8573 18.499L33.8578 19.842L39.6343 19.8451L39.6376 29.5689L29.9257 29.5656L29.9234 19.1716C29.9234 18.9936 29.8521 18.8227 29.7263 18.6969C29.6005 18.5711 29.4297 18.4999 29.2517 18.4998L18.1873 18.4961C17.8172 18.496 17.5171 18.7961 17.5161 19.1674L17.5197 30.1131C17.5102 30.1582 17.5055 30.2033 17.5055 30.2508L17.5104 41.3139C17.5105 41.499 17.5853 41.6663 17.7075 41.7886C17.8297 41.9108 17.9971 41.9856 18.1821 41.9857L29.2453 41.9905C29.2453 41.9905 29.2536 41.9893 29.256 41.9893L40.2966 41.993C40.4746 41.9931 40.6454 41.922 40.7711 41.7963C40.8968 41.6705 40.968 41.4997 40.9679 41.3218L40.9691 41.3182ZM18.852 40.6393L18.8476 30.9168L22.0912 30.9179L22.0912 30.9012L22.1054 30.9013L22.105 29.5582L18.8614 29.5572L18.8581 19.8334L28.57 19.8367L28.5732 29.5604L28.5305 29.5604L25.6689 29.5594L25.6694 30.9024L28.5167 30.9034L28.5167 30.92L28.5594 30.92L28.5627 40.6437L18.8532 40.6405L18.852 40.6393ZM29.9164 40.643L29.9131 30.9193L39.6226 30.9225L39.627 40.6451L29.9175 40.6418L29.9164 40.643Z" fill="#161616"/>
</svg>
