<svg width="59" height="59" viewBox="0 0 59 59" fill="none" xmlns="http://www.w3.org/2000/svg">
<path d="M19.606 44.9925L21.114 45C21.1235 43.0827 21.1272 41.1673 21.1291 39.25H19.6211C19.6192 41.1635 19.6155 43.077 19.606 44.9925ZM17.5287 26.0721C18.5825 25.6196 19.393 24.7882 19.7549 23.789C19.8812 23.4384 19.9548 23.0877 20.0245 22.7484C20.1301 22.2413 20.2206 21.8039 20.4599 21.4966C20.7861 21.0762 21.3817 20.9027 22.0735 20.701C22.6711 20.5276 23.3478 20.3296 23.9246 19.9186C25.3384 18.9138 25.6305 17.1247 25.7926 15.526L24.2922 15.3733C24.1583 16.7005 23.951 18.0503 23.0518 18.6876C22.6824 18.9496 22.1828 19.0966 21.6532 19.2512C20.8294 19.4907 19.8963 19.764 19.2724 20.5709C18.82 21.1535 18.6786 21.8378 18.5523 22.4411C18.4901 22.7408 18.4317 23.0255 18.3412 23.2763C18.1225 23.8833 17.6098 24.3961 16.9387 24.6864C16.2658 24.9749 15.5419 24.9918 14.95 24.7336L14.345 26.1154C14.8143 26.3209 15.3289 26.4246 15.8549 26.4246C16.4166 26.4246 16.9896 26.3077 17.5325 26.074L17.5287 26.0721ZM33.8398 21.6964C34.2771 21.6964 34.7088 21.6964 35.0707 21.6926L35.0613 20.1844C34.4034 20.1882 33.5231 20.1882 32.7917 20.1882L30.2337 16.5082H43.9906V15H28.7917C28.3751 15 28.0377 15.3375 28.0377 15.7541C28.0377 23.0802 22.0792 29.0395 14.754 29.0395C14.3374 29.0395 14 29.3769 14 29.7936V44.9944H15.508V31.1415L19.6777 33.7073C19.6777 33.7243 19.6739 33.7432 19.6739 33.7601C19.6739 34.8649 19.6739 35.8169 19.6268 36.9292L21.1329 36.9952C21.1687 36.1563 21.1781 35.4116 21.1819 34.6311L24.4581 36.6465V44.7474H25.9661V36.5239C31.1404 35.0327 34.2281 31.9352 36.1527 26.3059H43.9943V24.7977H36.0019L33.8435 21.6926L33.8398 21.6964ZM25.0198 35.2231C25.0198 35.2231 25.016 35.2231 25.0141 35.2231L22.6805 33.7865C23.9736 33.2605 25.2762 32.5687 26.6202 31.6939L25.7964 30.4308C24.1621 31.496 22.6013 32.267 21.0481 32.7817L17.1046 30.3554C23.4383 29.3373 28.4411 24.2867 29.3817 17.9278L31.8077 21.4174C31.4006 23.2668 30.6956 25.0182 29.7455 26.517L31.0198 27.3258C31.8341 26.04 32.4844 24.5884 32.9425 23.0519L34.7672 25.6762C32.9387 31.1321 30.0924 33.911 25.0179 35.2231H25.0198ZM37.1367 20.1807L37.1404 21.6889C39.2498 21.6851 41.64 21.6794 44 21.6568L43.9849 20.1486C41.6324 20.1712 39.2441 20.1769 37.1367 20.1807Z" fill="#161616"/>
</svg>
