<svg width="59" height="59" viewBox="0 0 59 59" fill="none" xmlns="http://www.w3.org/2000/svg">
<path d="M29.5839 26.7392L27.8391 28.4742L26.0942 26.7392L25.2187 27.6098L26.9635 29.3448L25.2187 31.0798L26.0942 31.9503L27.8391 30.2153L29.5839 31.9503L30.4595 31.0798L28.7146 29.3448L30.4595 27.6098L29.5839 26.7392ZM20.0629 34.6682V33.4377C18.9956 33.4377 18.1278 32.5748 18.1278 31.5135H16.8903C16.8903 33.2531 18.3134 34.6682 20.0629 34.6682ZM19.5772 22.1171C19.3962 22.1171 19.2245 22.1971 19.107 22.334C19.0745 22.3724 18.2871 23.2969 17.4054 24.695L18.4542 25.3487C18.878 24.675 19.2833 24.1136 19.5803 23.7245C20.6059 25.0688 22.9509 28.4726 22.9509 31.492C22.9509 35.2327 19.9376 35.3404 19.5942 35.3404C19.2508 35.3404 16.2375 35.2327 16.2375 31.492C16.2375 30.6414 16.4247 29.6893 16.7944 28.6603L15.6296 28.2465C15.2119 29.4078 15 30.4999 15 31.492C15 35.5096 18.0056 36.5709 19.5942 36.5709C21.1829 36.5709 24.1884 35.5096 24.1884 31.492C24.1884 27.1868 20.2176 22.5278 20.049 22.3325C19.9314 22.1956 19.7597 22.1171 19.5788 22.1171H19.5772ZM41.7625 16V44H43V16H41.7625ZM39.3092 16.2153C39.0895 16.1154 38.8312 16.1507 38.6471 16.3076L31.9862 21.9879C31.8486 22.1048 31.7697 22.2755 31.7697 22.4555V37.5445C31.7697 37.7245 31.8486 37.8952 31.9862 38.0121L38.6471 43.6924C38.7616 43.7893 38.9054 43.84 39.0508 43.84C39.139 43.84 39.2272 43.8216 39.3092 43.7831C39.5288 43.6831 39.6696 43.4647 39.6696 43.2248V16.7752C39.6696 16.5353 39.5288 16.3169 39.3092 16.2169V16.2153ZM38.4321 41.8866L33.0087 37.2615V22.737L38.4321 18.1118V41.8851V41.8866Z" fill="#161616"/>
</svg>
