<svg width="59" height="59" viewBox="0 0 59 59" fill="none" xmlns="http://www.w3.org/2000/svg">
<path d="M29.3721 24.0594H24.2006C23.8164 24.0594 23.5051 24.3848 23.5051 24.7866V25.1593H16.6956C16.3113 25.1593 16 25.4848 16 25.8866V31.079C16 31.4808 16.3113 31.8062 16.6956 31.8062H19.7525V35.4915H21.1437V31.8062H23.5051V32.1789C23.5051 32.5807 23.8164 32.9062 24.2006 32.9062H29.3721C29.7564 32.9062 30.0677 32.5807 30.0677 32.1789V24.7848C30.0677 24.383 29.7564 24.0576 29.3721 24.0576V24.0594ZM28.6766 31.4535H24.8962V28.7664H23.5051V30.3536H21.1437V28.7664H19.7525V30.3536H17.3911V26.6156H24.2006V26.5974H24.8962V25.5157H28.6766V31.4553V31.4535ZM32.2065 31.8062H36.6042V30.3518H32.2065V31.8062ZM32.2065 26.6138H36.6042V25.1593H32.2065V26.6138ZM40.6124 13V14.8908C40.2907 16.0471 39.7307 17.2743 39.1882 18.4633C38.3361 20.3287 37.6649 21.8032 37.9275 22.8776C38.2666 24.2612 39.7081 24.6466 40.6106 24.7484C40.2889 25.9029 39.7307 27.1301 39.1882 28.3173C38.3361 30.1827 37.6649 31.6572 37.9275 32.7316C38.2666 34.117 39.7099 34.5006 40.6106 34.6024V35.4624C40.2889 36.6187 39.729 37.8459 39.1865 39.0349C38.3344 40.9003 37.6632 42.3747 37.9258 43.4492C38.2648 44.8346 39.7081 45.2182 40.6089 45.32V46H42V13H40.6089H40.6124ZM40.6124 43.8547C40.0298 43.7656 39.3864 43.5401 39.2769 43.0893C39.1395 42.5238 39.8333 41.0039 40.4454 39.6604C40.5011 39.5385 40.5567 39.4149 40.6124 39.2913V43.8528V43.8547ZM40.6124 33.1371C40.035 33.0462 39.3847 32.8189 39.2769 32.3717C39.1395 31.8062 39.8333 30.2863 40.4454 28.9428C40.5011 28.8209 40.5567 28.6973 40.6124 28.5737V33.1353V33.1371ZM40.6124 23.2813C40.035 23.1903 39.3847 22.9631 39.2769 22.5158C39.1395 21.9504 39.8333 20.4305 40.4454 19.0888C40.5011 18.9669 40.5567 18.8433 40.6124 18.7197V23.2813ZM32.2065 29.21H36.6042V27.7555H32.2065V29.21Z" fill="#161616"/>
</svg>
